<svg xmlns="http://www.w3.org/2000/svg" data-name="Слой 1" viewBox="0 0 100 125" x="0px" y="0px"><path d="M42.25556,36.00246c2.87233-.13911,5.8278-.42678,8.77836-.38313,2.76291.04089,5.52609.38249,8.27889.68529,2.39346.26328,4.78362.59607,7.1523,1.02477a13.55635,13.55635,0,0,1,2.60483,1.03515,8.94579,8.94579,0,0,1,1.76107.761,16.30293,16.30293,0,0,1,3.17483,2.5349,11.903,11.903,0,0,1,2.63173,6.9263,4.71793,4.71793,0,0,0,.676,2.73042c.91158,1.25846,1.39659,2.82428,2.29834,4.092a11.77,11.77,0,0,0,2.87361,2.88846c2.11159,1.4372,4.35672,2.683,6.57879,3.95156,1.93944,1.10715,2.85188,2.95551,3.68728,4.87193.64393,1.47713,1.24913,2.97115,1.98007,4.71688-.13853.30218-.37333.41458-1.16434.08107a39.719,39.719,0,0,0-4.83777-1.42568c-.24465-.068-.5029-.087-.88722-.15051l1.11783.513A5.01172,5.01172,0,0,1,84.723,68.62012a6.03368,6.03368,0,0,1-1.43181-5.01936c.03514-.15828-.24494-.44743-.44279-.5797a2.26551,2.26551,0,0,0-.74095-.23035c-2.99233-.69845-4.43422-3.06377-5.86294-5.44473-.09416-.157-.20022-.30681-.37986-.58052-.26475.72854-.48806,1.32615-.69951,1.92793-.795,2.26246-1.5774,4.5294-2.38237,6.7883a30.59635,30.59635,0,0,0-1.22486,3.32813c-.56376,2.46428-1.00136,4.95852-1.44623,7.4484-.1833,1.02593-.2716,2.07044-.36965,3.10964-.19915,2.11-.39283,4.22093-.55173,6.33425-.054.71859-4.777,1.06117-5.18,1.13335a11.584,11.584,0,0,1-.14211-1.17174c-.01617-.66712.03995-1.3367.00574-2.00217-.00853-.16607-.24588-.32036-.37809-.48007-.14972.12679-.376.22465-.43667.38511-.37868,1.00218-.69442,2.02872-1.092,3.02277a1.06008,1.06008,0,0,1-.64864.60575c-.76316.10909-1.54359.09873-2.31747.131-.61739.02575-.77211-.31174-.72755-.8699.1766-2.21084.29244-4.42735.51185-6.6337.14675-1.47572.44211-2.93621.64633-4.40693.07352-.52943.07514-1.06884.11182-1.63851-1.54774.30414-2.64619-.21172-2.20269-2.85115a12.57875,12.57875,0,0,0-.65707,1.14756c-.47865,1.07237-1.72092,1.70316-2.493,1.12033a2.49766,2.49766,0,0,1-.73059-1.36918,3.0342,3.0342,0,0,1-.03965-1.74561c.37443-.87719-.13045-1.10365-.68016-1.48963a6.49513,6.49513,0,0,1-1.32457-1.273,2.47592,2.47592,0,0,0-2.46847-1.08107,49.31624,49.31624,0,0,1-5.82119.15664,17.74886,17.74886,0,0,1-3.68875-.32791,18.70238,18.70238,0,0,1-2.94165-1.21015,3.25414,3.25414,0,0,0-.56335-.12505c-1.44793,3.547-1.26056,7.23695-1.34228,10.90949-.05142,2.31124-.33518,4.61724-.5117,6.92582-.082,1.07235-.10128,2.15389-.26681,3.21288a1.27442,1.27442,0,0,1-.74769.89321c-1.36213.24763-2.74695.37888-4.12787.50564-.20665.019-.5951-.17417-.62868-.3282a14.404,14.404,0,0,1-.43791-2.78239,21.21207,21.21207,0,0,1,.34674-2.53543c.2862-2.68837.62362-5.3746.79414-8.071.14815-2.34285.118-4.69837.11323-7.04818a4.716,4.716,0,0,0-.39431-1.301l-.34688-.00186a12.88027,12.88027,0,0,0-.48414,1.26305q-.49842,1.83031-.93572,3.67709a13.76822,13.76822,0,0,0-.43115,2.24622c-.16581,2.54461-.13993,5.10822-.43306,7.63606-.24453,2.10887-.16183,4.29828-1.07072,6.29461-.11895.26128-.45862.60321-.69163.59986a19.61342,19.61342,0,0,1-2.90579-.24933,1.69416,1.69416,0,0,1-1.49375-1.90415c.05285-1.75177.16594-3.50181.25945-5.25226.095-1.779.19075-3.558.29787-5.33623.092-1.5274.24619-3.05272.283-4.58112.01937-.80471-.10075-3.29357.48924-3.16553C18.903,60.35017,18.521,54.082,18.85168,47.729a13.01337,13.01337,0,0,0-2.69106-.2298c-1.475.18054-2.524-.682-3.68726-1.25171a5.66615,5.66615,0,0,1-2.94851-6.162c.50941-2.03351,1.25949-4.00689,1.90824-6.00521.11735-.3614.25923-.71484.37507-1.03171-1.3859.07577-2.728.19977-4.06968.196a3.5292,3.5292,0,0,1-1.46975-.48218c-1.14066-.5746-1.17914-1.17108-.74285-2.36558a24.59277,24.59277,0,0,1,3.58987-6.12884,4.43744,4.43744,0,0,1,3.96557-1.71243,18.49,18.49,0,0,1,1.89714.26376,15.523,15.523,0,0,1,1.77647-7.08017,23.0194,23.0194,0,0,1,1.70847-2.72058c.12227-.17986.42956-.234.65153-.346a2.20815,2.20815,0,0,1,.29118.67362,39.96169,39.96169,0,0,0,.2779,4.59947c.21154,1.16987.46528,2.48857,1.6727,3.18224a1.80793,1.80793,0,0,0,1.19946.28858,8.67858,8.67858,0,0,1,6.3547.56743,2.13738,2.13738,0,0,0,1.92533-.40879,53.71687,53.71687,0,0,0,3.83631-4.43877c.27795-.34781.25689-.92542.41389-1.38339.06675-.19471.24151-.50076.36023-.49757a.85389.85389,0,0,1,.65718.32c.92086,1.91368,1.775,3.8441,1.11906,6.06181-.3162,1.069-.55917,2.15957-.85187,3.30531a7.19158,7.19158,0,0,1,1.77176.5372,7.57671,7.57671,0,0,1,3.61387,6.01407C41.94091,32.98787,42.08906,34.48653,42.25556,36.00246Zm28.7023,5.18768a26.6208,26.6208,0,0,0-2.16795-1.84063,9.43847,9.43847,0,0,0-2.08928-1.0199c-.29274-.10624-.95463-.002-.99587.1389-.2343.8005-.81711.7351-1.41541.72985-.69011-.006-1.38036.00178-2.07053.004-2.21608.00714-2.72358.4174-3.18458,2.5739a3.43312,3.43312,0,0,1-3.35495,2.79285,8.523,8.523,0,0,1-5.66716-1.81291,3.3246,3.3246,0,0,0-3.03871-.30771,13.29467,13.29467,0,0,1-2.64191.39527,3.32924,3.32924,0,0,1-3.03494-4.49025c.07324-.19355.11868-.39762.14392-.48385l-1.56691-.18285c-2.21426,1.32659-4.50768.90822-6.88873-.04586a15.577,15.577,0,0,1-4.80366,7.46237c-2.37916,2.1184-5.35222,2.657-8.45311,2.53756-.06192,1.5274-.1983,2.94858-.15695,4.36456.05148,1.76215.18269,3.52826.3986,5.278.4427,3.58817,1.08855,7.12723,2.96946,10.31364.12227.20713-.10633.6214-.17172.93932-.24512-.08561-.55975-.10515-.71882-.27254a4.31524,4.31524,0,0,1-.52713-.92139,10.803,10.803,0,0,1,.1986,1.82058c-.1409,2.5117-.35113,5.01942-.51268,7.53008-.07027,1.09186.00967,2.2009-.14595,3.278-.23175,1.60409.2763,2.40367,1.86866,2.61783,1.345.18087,1.97289-.23417,2.11109-1.60548.18918-1.87765.17975-3.777.4076-5.64857.23924-1.9649-.06313-3.97335.68489-5.90876.50815-1.31479.64476-2.76887,1.057-4.12746.14351-.47308.57106-1.13362.9483-1.19156a2.31252,2.31252,0,0,1,1.46682.68543,1.56269,1.56269,0,0,1,.41859,1.04363c.05524,1.13277.02589,2.26964.03024,3.40492.003.78053.06228,1.56531.00186,2.34083-.25845,3.31812-.56424,6.63262-.8088,9.95167-.019.258.28273.76015.4675.776a21.42181,21.42181,0,0,0,3.09451.03879c.18523-.011.46886-.47015.49352-.74176.16827-1.8532.32286-3.70981.39835-5.56872.101-2.48792.05665-4.98327.21154-7.4669a39.32781,39.32781,0,0,1,.69492-4.17351,8.88927,8.88927,0,0,1-.75717-.63573c-.08609-.08713-.134-.34908-.07347-.41433.11232-.121.35119-.25534.47862-.21188,1.61669.5515,3.22291,1.13368,4.77444,1.68758a31.21246,31.21246,0,0,1,1.99191-3.01827c.82029-.9931,1.72165-2.06259,3.27519-1.71254a5.86827,5.86827,0,0,0,5.29-1.20532A5.70089,5.70089,0,0,1,53.48,57.26388c2.20326.12249,5.87966,3.00605,5.60739,5.69825-.04866.48107.08,1.02488.99962.85384a9.3233,9.3233,0,0,0,3.94811-1.55892,1.26972,1.26972,0,0,1,.98032-.16641c.15283.0444.23123.53258.24783.82573a19.81613,19.81613,0,0,0,.18852,3.56179c.3697,1.501-.09379,2.87572-.22709,4.30049-.09978,1.06642-.37313,2.12044-.42324,3.18685-.1011,2.15067-.05884,4.30809-.16006,6.45875-.07385,1.56949-.134,1.56643,1.41858,1.67881.098.00708.19534.0305.29319.03192a2.307,2.307,0,0,0,2.49556-2.42173,47.27645,47.27645,0,0,1,.678-6.61354A64.87893,64.87893,0,0,1,71.65813,65.905c.80845-2.42576,1.76632-4.80137,2.602-7.21858a1.55291,1.55291,0,0,0-1.4417-2.172,2.20534,2.20534,0,0,1-1.0344-.43058,3.91421,3.91421,0,0,1-1.08079-4.32438c.48327-1.4388.424-1.67518-.85271-2.54874a4,4,0,0,1-1.83745-3.096A4.64153,4.64153,0,0,1,70.95786,41.19014Zm-47.9899,5.383a8.60682,8.60682,0,0,0,5.14026-2.49906c.47442-.4851.92538-.99339,1.40458-1.47356,1.61483-1.61805,1.51734-3.05464-.39732-4.33193a7.3239,7.3239,0,0,0-2.02081-.79667c-3.10011-.90407-6.25527-.625-9.3941-.3137-1.08428.10754-2.13463.653-3.21324.69874a6.39423,6.39423,0,0,0-3.72755,1.7324,2.148,2.148,0,0,0-.59312,1.70437,6.315,6.315,0,0,0,2.85458,4.24347,14.16972,14.16972,0,0,0,2.75037,1.20729l.10961-.25167a5.83312,5.83312,0,0,1-1.0902-.606c-.17235-.14718-.17568-.49232-.25519-.74825.26543-.01483.661-.15012.776-.02579,1.095,1.18361,2.63806.90986,3.97131,1.14713a6.28024,6.28024,0,0,0,2.59819-.63346C22.68715,45.37823,23.02042,45.60029,22.968,46.57316Zm2.83687-24.59934a8.29044,8.29044,0,0,0-1.70312.02192,13.05428,13.05428,0,0,0-7.668,4.33526,23.083,23.083,0,0,0-3.85557,6.98038c-.597,1.72015-1.24109,3.42395-1.79522,4.94586a40.07082,40.07082,0,0,1,4.45368-1.46876A32.85374,32.85374,0,0,1,21.48758,35.93c1.98317-.03362,3.96963.51157,5.9641.60925a4.5412,4.5412,0,0,1,2.77223,1.15431,12.22581,12.22581,0,0,1,1.206,1.3,9.81538,9.81538,0,0,1,.32206-1.23035,6.71528,6.71528,0,0,0-.06176-4.193.79317.79317,0,0,0-.38433-.52463,1.05531,1.05531,0,0,1-.72232-1.30533,10.70389,10.70389,0,0,1,.27511-1.894,3.84143,3.84143,0,0,0-.77005-4.021c-.42638-.43429-1.36563-.37157-2.07438-.5208C26.103,24.90206,25.0017,23.843,25.80483,21.97382ZM54.37642,72.59664c.53711-.202.78884-.2161.87585-.3431.4171-.60856.78454-1.25086,1.179-1.87525.63094-.99863,1.39312-1.0308,1.93695.01626a4.178,4.178,0,0,1,.11191,1.56127c.01606.27656.04525.55236.06851.8285.25781-.19429.60333-.33759.75289-.59481.22424-.38573.20669-.943.48392-1.25868a2.8464,2.8464,0,0,1,1.277-.70858c.07922-.025.42.566.53069.90777a11.12978,11.12978,0,0,1,.27586,1.4364c.93311-.13088.93508-.8145.79078-1.3408-.28839-1.05178.23478-1.61034.94649-2.219a2.5978,2.5978,0,0,0,.99023-1.4459,19.02192,19.02192,0,0,0-.18852-3.47432c-.01622-.15377-.45039-.41985-.62546-.37545-1.27659.32382-2.53025.7367-3.80286,1.07783a25.17569,25.17569,0,0,1-7.10774,1.08127,6.00636,6.00636,0,0,0-1.17457.2036l-.14746.34058a8.24879,8.24879,0,0,0,2.15159,1.59989c1.08974.34989,1.25237.41844,1.00745,1.52254A28.11752,28.11752,0,0,0,54.37642,72.59664Zm10.15832-2.72252c-1.24971.34975-.94381,1.19036-.92275,1.8407a1.743,1.743,0,0,1-1.81044,1.969,1.38466,1.38466,0,0,1-.88366-.63395,4.14,4.14,0,0,1-.34565-1.16139.639.639,0,0,0-.24734.55906,6.4266,6.4266,0,0,1,.12788,1.04593c-.24426,2.53435-.55539,5.063-.74383,7.60108A1.5775,1.5775,0,0,0,60.457,82.265a1.46607,1.46607,0,0,0,2.25612-1.17414c.45967-2.89433.90491-5.79094,1.36506-8.68519C64.20476,71.60981,64.36335,70.819,64.53474,69.87412ZM34.25744,26.5412c2.05416.59011,4.02127,1.11239,4.7,3.34486.55488,1.825,1.56423,3.59707.82189,5.828-2.03664-1.40206-4.52271-1.58973-5.81805-3.82932-.21716,1.582.01833,2.01477,1.3139,2.63995.2929.14137.54576.37184.84457.49382,1.46131.59652,2.92685,1.1839,4.407,1.73116.15041.05563.58011-.16563.58883-.28055A22.85776,22.85776,0,0,0,41.20289,33.56a19.19164,19.19164,0,0,0-.37324-2.48094,7.05341,7.05341,0,0,0-2.07893-4.07971A3.47388,3.47388,0,0,0,34.25744,26.5412ZM76.5769,52.1529c-.11395,1.66342-.83633,3.31515.46319,4.77659.68664.77224,1.0821,1.79984,1.75131,2.592a5.68973,5.68973,0,0,0,4.299,2.35581,1.01483,1.01483,0,0,0,.80273-.47454,1.13953,1.13953,0,0,0-.23622-.94142,4.41209,4.41209,0,0,0-1.20359-.98988,11.51886,11.51886,0,0,1-4.10125-4.442C77.76493,54.0678,77.16888,53.11157,76.5769,52.1529ZM35.00159,24.624c-.16661-.51606-.32454-1.00512-.52726-1.633a6.54357,6.54357,0,0,1,.83934.13721,1.48509,1.48509,0,0,1,.35923.18838c-.025-.53158-.29255-1.3044-.03357-1.577a2.9581,2.9581,0,0,0,.087-4.02955c-1.65718,1.77249-3.31458,3.54518-4.865,5.20351l2.51556,3.11665a2.33453,2.33453,0,0,0,.48026-.837,5.07272,5.07272,0,0,0-.1549-1.33734Zm4.21781,9.0621c-.24965-.83537-.51287-1.64045-.72993-2.45779a4.45136,4.45136,0,0,0-3.60071-3.51411,1.118,1.118,0,0,0-.76741.27578,17.73219,17.73219,0,0,0,.37253,2.36039c.07392.32186.37687.58745.47022.90922A4.25566,4.25566,0,0,0,39.2194,33.68607ZM18.448,15.03262l-.47794-.01342a4.53333,4.53333,0,0,1-1.73576,4.33653c1.18583.43308,1.14451.66922-.14726,1.87282l1.116.17464-1.15687,1.36288c-.00426-.01564.06593.24141.13284.48636l1.27316-.81559.29759.23859c-.21685.51108-.43372,1.02215-.7394,1.74261,1.24769-.90591,2.29941-1.66951,3.38-2.454A11.33482,11.33482,0,0,1,18.448,15.03262ZM9.96688,29.18685c3.22632.40966,4.81182-1.72406,6.29065-4.09864l-.87977-.831c.10513.4274-2.33838,1.129-3.421,1.657A3.195,3.195,0,0,0,9.96688,29.18685Zm23.5419,5.53238c.08932.66654-.63908,1.13108-.03253,1.86173,1.04832,1.26285,2.42746.743,3.6792.89348.29195.03508.614-.18,1.14947-.35368Zm11.25207,6.72612c1.40678-.24319,1.73292-.47516,1.90637-1.18384Z"/><path d="M37.37036,46.488a4.42337,4.42337,0,0,1,3.93818.52493c.89295.538.953,1.31165.10151,1.91032-.70452.49528-.94055.86771-.09131,1.5323.97761.76505.90188,2.722.13291,3.70272a7.896,7.896,0,0,1-3.349,2.192,2.29787,2.29787,0,0,1-3.24383-1.17567,1.3406,1.3406,0,0,0-.72751-.488c-1.06877-.35026-2.19392-.56165-3.21494-1.01287a9.15889,9.15889,0,0,1-1.94539-1.43013c-1.42844-1.17274-.47626-3.85644.75615-4.46157C31.02634,47.14406,36.3151,46.879,37.37036,46.488Z"/><path d="M12.74008,41.07782a1.273,1.273,0,0,1-.68873-1.02234,1.00782,1.00782,0,0,1,1.38538-.94185,17.24575,17.24575,0,0,1,4.16517,2.23682A32.8593,32.8593,0,0,1,12.74008,41.07782Z"/><path d="M21.56652,41.31275c.50322-.19962.99654-.43093,1.5117-.59237,1.13165-.35462,2.27415-.67461,3.41262-1.00737.60529-.17692,1.06537-.24257,1.37153.56657a.8984.8984,0,0,1-.77131,1.28473A31.02554,31.02554,0,0,1,21.56652,41.31275Z"/><path d="M23.59124,27.79743a2.56506,2.56506,0,0,0-2.28833-2.58624,3.68961,3.68961,0,0,0-3.38165,1.72961,13.72433,13.72433,0,0,0-1.75073,3.951c-.3628,1.0835.308,1.89709,1.10821,2.5805.65259.55738,1.2674.29181,1.89911-.03527a8.826,8.826,0,0,0,1.39459-.6872c1.45984-1.13183,3.03772-2.20709,3.02356-4.36377A5.46768,5.46768,0,0,0,23.59124,27.79743Zm-4.62518,2.07068a.5003.5003,0,0,1,0-1A.5003.5003,0,0,1,18.96606,29.86811Zm1.17151,2.00232a2.058,2.058,0,0,0,.79388-2.72791,1.61146,1.61146,0,0,0-1.23022-.90692A2.53175,2.53175,0,0,0,17.247,30.51728a5.61864,5.61864,0,0,1,3.56586-4.2934,1.69723,1.69723,0,0,1,1.8941,1.41156A3.9084,3.9084,0,0,1,20.13757,31.87043Z"/><path d="M29.65673,27.2519a3.88535,3.88535,0,0,0-1.97583-1.80841,2.02814,2.02814,0,0,0-2.60937.88494,8.84481,8.84481,0,0,0-1.38422,4.19373,25.07971,25.07971,0,0,0,.84534,2.6441,1.19107,1.19107,0,0,0,.96954.57587,6.554,6.554,0,0,0,2.01636-.68024A5.1074,5.1074,0,0,0,29.65673,27.2519Zm-3.5744,2.61621a.5003.5003,0,0,1,0-1A.5003.5003,0,0,1,26.08233,29.86811Zm1.8338,1.54284a2.96944,2.96944,0,0,0-.603-3.1192c-.62232-.77246-1.37574-.68408-1.87653.18054-.20935.36139-.42487.71912-.7,1.184a4.6551,4.6551,0,0,1,1.81116-3.19306c.63146-.64014,1.304-.0152,1.7586.46784A3.31524,3.31524,0,0,1,27.91613,31.411Z"/></svg>