<svg xmlns="http://www.w3.org/2000/svg" data-name="Слой 1" viewBox="0 0 100 125" x="0px" y="0px"><path d="M90.63435,32.17811a26.44894,26.44894,0,0,0-3.51888,1.69824c-1.1564.71173-2.19175,1.6167-3.28,2.43726,1.26952-1.53614,2.66391-2.92493,3.99938-4.36835,2.0276-2.19159,4.74641-3.88733,5.1926-7.18a17.796,17.796,0,0,0-6.33328,4.57928c-1.81364,1.91345-3.72026,3.73859-5.586,5.60248,2.17226-3.27179,4.47419-6.402,6.78156-9.52808,1.12548-1.525,2.28329-3.02667,3.37182-4.57776.1976-.28155.13038-.75134.1854-1.13427a2.851,2.851,0,0,0-1.1331-.03022c-.72836.31281-1.38641.78-2.09092,1.15137a23.39694,23.39694,0,0,0-8.05965,6.54846c-1.98245,2.64563-3.8924,5.3462-5.83427,8.02259A19.80653,19.80653,0,0,1,75.953,31.60889c1.82143-3.37323,3.68662-6.72229,5.50527-10.097q1.45392-2.698,2.78935-5.45978c.12435-.25708-.08524-.68-.14023-1.0263-.333.0783-.76063.05218-.98265.2528a32.61266,32.61266,0,0,0-2.84714,2.79224c-1.40657,1.62512-2.71695,3.33392-4.14691,5.10522.58346-1.7998,1.09032-3.49755,1.68479-5.16284.72842-2.0404,1.56214-4.042,2.27159-6.08886.13353-.3852-.10239-.90406-.16781-1.36127-.47053.111-1.08677.071-1.38612.35937-1.23287,1.18763-2.416,2.43512-3.52772,3.73761-.98624,1.15546-1.85388,2.41266-2.93551,3.83795.38132-2.04724.7601-3.79211,1.00021-5.55816a4.26145,4.26145,0,0,0-.43929-1.55707c-.45735.25409-1.08946.39215-1.34354.781a87.29237,87.29237,0,0,0-4.67079,7.552c-1.2092,2.34112-1.93311,4.93371-3.01553,7.34863-1.194,2.66388-2.53759,5.25952-3.86082,7.86151a1.23651,1.23651,0,0,1-.88959.59461c-2.71293.04992-5.438.57385-8.13726-.318a5.91265,5.91265,0,0,0-1.69438-.25433c-2.0351-.049-4.0706-.06183-6.10576-.07263A4.06562,4.06562,0,0,1,39.77132,33.696c-1.00631-1.06073-2.03785-2.09833-3.08076-3.12323a.99383.99383,0,0,1-.13894-1.4176,12.72546,12.72546,0,0,0,1.534-4.70892c.54133-3.486-.84984-6.28644-2.79478-8.91211-.63152-.8526-.55386-1.15229.17541-1.70295A31.52526,31.52526,0,0,0,39.119,10.81294,3.87455,3.87455,0,0,0,40.31368,7.1244c-.46881-2.2096-2.60823-3.291-4.44592-2.10431-.24824.16028-.51059.299-.78085.45605-.49148-1.63775-1.54884-2.67889-2.67646-2.65759-1.56961.02954-2.10539,1.54272-3.20212,2.3056-.68035-.87323-1.28482-2.08221-2.52415-1.44641a13.27971,13.27971,0,0,0-2.48329,2.16742,6.67215,6.67215,0,0,1-1.48567-.7738,1.18554,1.18554,0,0,0-1.79791.19592c-1.03849,1.589-2.40526,3.13379-1.88529,5.299a1.39229,1.39229,0,0,1-.48512,1.48883,7.57753,7.57753,0,0,0-1.73744,2.37348,6.405,6.405,0,0,1-1.84662,2.29376c-.39751.13751-.80775.30041-1.21718.46442-.24944.109-.50419.21466-.76259.32067a22.17441,22.17441,0,0,0-4.14891,2.30841c-.65624.47962-1.22932.96473-1.81836,1.41993a3.615,3.615,0,0,0-.04319.38586c-.00471.09058.55283.27826.86389.32184,1.11033.15564,2.22412.29694,3.3402.38763.776.06311,1.55792.03437,2.33718.04663l.10395.30811c-.83133.57489-1.68944,1.11615-2.48071,1.74133a3.20019,3.20019,0,0,0-.63105.909c.42144.0625.84391.11365,1.26914.13495,1.3296.06665,2.62489-.20227,3.95284-.12171.09891-.0083.19722-.02337.29628-.03051a1.4943,1.4943,0,0,1,1.09233.42242c.957,1.119,1.834,2.306,2.73236,3.45807a32.105,32.105,0,0,0-1.80991,3.16266,10.999,10.999,0,0,0-.86369,7.4107,2.20011,2.20011,0,0,1-.18908,1.11579c-1.01311,3.13733-2.098,6.25183-3.034,9.413a2.07278,2.07278,0,0,0,1.19587,2.49713,1.2961,1.2961,0,0,1,.57463.81684,12.39433,12.39433,0,0,0,3.00941,6.48c.87717.96038,1.73283,1.94348,2.55,2.955a19.79412,19.79412,0,0,0,8.93632,5.95722,6.30518,6.30518,0,0,0,.51623,1.136c1.03859,1.50812,2.23834,2.92011,3.154,4.49543,1.6706,2.87432,4.053,5.47937,3.71007,9.18475a12.12965,12.12965,0,0,0,.36908,3.26971c.45006,2.38727-.28868,2.14753-1.47628,3.06873-1.577,1.22327-3.00664,2.63715-4.46654,4.00433a.84046.84046,0,0,0-.14927.79138,1.251,1.251,0,0,0,.88.34,1.73421,1.73421,0,0,0,.79365-.38794c1.24479-.83014,2.48068-1.6734,3.956-2.67212-.25806,1.48926-.51129,2.63648-.626,3.79975-.03536.35888.30688.76153.47615,1.14416.31887-.25433.76578-.44263.93313-.77515.56995-1.13232,1.04131-2.31555,1.56326-3.509,1.4739,1.124,2.83343,2.16083,4.186,3.19232.9056-1.13525.93775-1.16089.17723-2.10583-.75221-.93476-1.57859-1.81031-2.226-2.54553,1.95048-.20429,3.97771-.41657,6.19424-.64875-.14819.46143-.23761.84247-.391,1.19477a14.61532,14.61532,0,0,0-.85482,1.86584c-.155.56555-.31834,1.55011-.05282,1.73663.7752.54462,1.0143-.40149,1.423-.83862.50851-.54388.94424-.60663,1.42037.13043a10.86554,10.86554,0,0,0,1.37519,1.42023c.16891-1.49493.33852-2.59.40673-3.69312.10637-1.72094.56745-1.97149,2.07829-1.03906.12957.08.22149.27185.34969.29462.36521.06476.74016.069,1.11125.09711-.10806-.37946-.09684-.8938-.34531-1.11432-.92039-.81671-1.95035-1.50849-2.88536-2.31018A1.50041,1.50041,0,0,1,51.3024,87.511c.09828-2.12182.2774-4.23846.42566-6.35717.05368-.76734.382-1.07526,1.20484-.90515.74254.15344,1.04265-.28052,1.18478-1.01594a7.074,7.074,0,0,1,.83758-2.40234c.65457-1.04047,1.56-1.91669,2.283-2.91815.99224-1.37451,1.86713-2.83923,3.89971-2.79767a3.04568,3.04568,0,0,0,1.31153-.37756,28.96528,28.96528,0,0,0,10.60722-8.77063,34.41933,34.41933,0,0,0,5.13618-10.45832,9.216,9.216,0,0,0,.28747-4.27636A1.65052,1.65052,0,0,1,78.76,45.98035c3.82659-3.7525,7.69805-7.45941,11.54856-11.18774a7.41819,7.41819,0,0,0,1.18329-1.37744,1.19645,1.19645,0,0,0,.04122-1.02344A.96414.96414,0,0,0,90.63435,32.17811Zm-8.05894,2.63782c2.57713-2.57154,5.17922-5.118,7.77585-7.67005l.29553.27948c-.51213.64453-.97832,1.33307-1.54488,1.92554-1.86027,1.94543-3.75666,3.85632-5.64021,5.77948-.10632.10852-.20427.2525-.33652.30224a4.35648,4.35648,0,0,1-.69622.14728C82.47314,35.32063,82.42358,34.96742,82.57541,34.81593Zm-.34194,1.61767c-.9259.86048-1.68351,1.56445-2.43955,2.26715a10.511,10.511,0,0,0,.67351-1.80481C80.68475,35.744,81.42034,36.52686,82.23347,36.4336Zm-.29728-9.78985.31468.1986q-.69564,1.13682-1.39128,2.27356l-.42246-.27093Q81.1867,27.74433,81.93619,26.64375Zm-9.03158-7.061c.43974.30322.81357.561,1.24651.85956.54845-.3714,1.10173-.746,1.65379-1.11981-.28576-.57654-.53166-1.0727-.7935-1.60089-.22769.31659-.4586.63757-.68945.95849l-.29724-.077c.08946-.46582.02923-1.05609.29385-1.37635,1.26573-1.5321,2.61942-2.991,3.94189-4.476l.30925.20581q-3.14649,8.35483-6.29286,16.70978l-.35752-.072c-.26655-.60529-1.52772-.70368-.85221-1.7785.15191-.24176.46954-.38111.60875-.62665.22933-.40436.578-.8949.49966-1.27851-.07876-.3858-.61737-.68542-1.14558-1.21411.00345-.04681.0309-.41839.06483-.87683.6044.67645,1.08526,1.276,1.40609-.10022.09619-.4126.77957-.6485,1.0943-1.0451a10.30807,10.30807,0,0,0,.80919-1.40314l-.30038-.222c-.66507.2815-1.3302.56293-2.26592.95893C72.27271,21.01972,72.58021,20.32056,72.90461,19.58277ZM62.97646,30.66425a2.873,2.873,0,0,1,.15518.82032c-.15236.71234-.38908,1.40643-.51972,2.12219-.13213.72394-.29156,1.273-1.264.697C61.8719,33.13276,62.37416,32.01026,62.97646,30.66425ZM16.65192,21.31336c-.21582-1.87433.48226-3.89038,1.009-5.7727.77714-2.77759,2.9402-3.84552,5.66793-3.96729,1.20256-.05371,2.41274.02179,3.61679-.01562,1.98312-.06159,3.39114.96991,4.71514,2.31732.96582.983,2.07747,1.823,3.29523,2.87451-.34428.2179-.59795.37848-1.057.66907a12.39593,12.39593,0,0,1,1.30181.80383,7.86407,7.86407,0,0,1,.81585.89447c-.257.1532-.52127.29578-.76791.46393a2.8609,2.8609,0,0,0-.35694.34216c.18292.16736.34475.43823.55233.48389.826.18164,1.46816.48682,1.38194,1.33087-.35942.33319-.66719.61835-.97483.90357l1.40218,1.00128c-.88755.18646-1.46357.30743-2.03952.4284l-.03781.33032c.491.21717.98206.43427,1.50349.66492.058,1.18079.058,1.18079-2.11728,1.40076.45774.35846.91547.717,1.65557,1.29651-.84114.286-1.52532.51849-2.20949.751l-.11508.33062c.279.18231.558.36457,1.04383.682-3.24361,2.00281-6.44085,1.16858-9.621.48492-.74857-3.13824-1.40762-3.42828-4.1954-1.86486A9.35833,9.35833,0,0,1,16.65192,21.31336Zm6.28069,13.06317-.36229.228-1.3231-2.11114.30385-.19135Q22.2419,33.33928,22.93261,34.37653ZM18.5859,38.54609q.367.6438.734,1.2876l-.50275.28308q-.33006-.6407-.66018-1.28131Q18.37147,38.6908,18.5859,38.54609ZM15.26735,51.19343c-.13247-.49433-.356-.85022-.274-1.10181.459-1.40814,1.00459-2.78631,1.49551-4.184.40969-1.16644.79475-2.34222,1.17017-3.52075.134-.42059.2075-.86139.29361-1.22907a13.55568,13.55568,0,0,0,3.02027.74872c1.61509.01612,2.48886-1.06848,3.2334-2.45117,1.35311-2.51282,1.35079-5.23675,1.3896-7.97565,5.21577.756,7.64258.72071,9.39068-.43011,1.2839,1.15851,2.51781,2.26831,3.74752,3.38275a6.41331,6.41331,0,0,0,3.5616,1.72821,8.401,8.401,0,0,1,2.0877.88776c-1.225,1.99756-1.99024,2.17419-4.31375.89313a3.839,3.839,0,0,0-1.22651-.21,3.58755,3.58755,0,0,0,.45565,1.13764c.37866.423.98.65307,1.33873,1.08667a3.41089,3.41089,0,0,1,.70271,1.49029c.097.52405-.191.9162-.83664.61377-.58326-.27319-1.15306-.576-1.736-.84979-.41644-.1955-.84493-.36462-1.50808-.64813.61906,1.57953,1.11924,2.85553,1.61936,4.13159l-.35641.2572c-.62959-.51452-1.26731-1.01935-1.88649-1.54614-.67822-.577-1.32393-1.19373-2.01928-1.74841-.15976-.12745-.46409-.07221-.7019-.10108a1.961,1.961,0,0,0,.06275.707,2.9169,2.9169,0,0,0,.58326.717c1.54,1.535,1.63737,2.317.44053,4.42566-1.06278-.67321-2.18517-1.22686-2.50594-2.62036a1.32428,1.32428,0,0,0-.23174-.6391,6.84925,6.84925,0,0,0-.946-.65863c-.069.36048-.30171.79254-.17721,1.06842a2.534,2.534,0,0,1-.16612,2.72107,5.715,5.715,0,0,1-1.24566.96228c-.31-.48089-.8086-.934-.89314-1.44818-.21508-1.30725-.9046-2.22742-2.05659-2.1897a5.41186,5.41186,0,0,0,.36285,1.96515c.53506.83325.17179,1.37616-.25086,1.95069-.44852.6098-.96822,1.16662-1.718,2.05658-.4224-.89771-.75674-1.56806-1.04938-2.25556-.08477-.199.004-.46924-.08021-.6687-.23971-.56763-.2458-1.52515-1.13678-1.33929-.926.19311-.35086.967-.26345,1.51654.11444.71991-.83647,2.83294-1.48569,3.03656a1.0382,1.0382,0,0,1-.85844-.53028c-.17678-.85778-.15477-1.75116-.29266-2.61908a5.01544,5.01544,0,0,0-.49449-1.15265,3.85965,3.85965,0,0,0-1.12909.7378c-.50382.69018-.80213,1.53442-1.31992,2.21106A15.30355,15.30355,0,0,1,15.26735,51.19343ZM29.23364,61.2873c.91451-.29956.91451-.29956,1.92305,2.01855C29.84383,63.13477,29.87431,61.94752,29.23364,61.2873Zm-.65923.45514c.43361.75653,1.53078,1.2038,1.17029,2.6261-.70757-.83167-1.269-1.44831-1.76914-2.11072-.12165-.16107-.04195-.47266-.05478-.71509C28.14544,61.60548,28.49251,61.59956,28.57441,61.74244Zm-.26825-1.84271.07016-.49854,1.43143.135-.063.5614Q29.02548,59.99866,28.30616,59.89973Zm9.56665,16.94519c-.94972.54425-1.27118-.21-1.69122-.76209-1.186-1.55908-2.4129-3.09125-3.51907-4.70477a7.28516,7.28516,0,0,1-.96782-2.59033c2.63971,2.17523,5.7933,2.84088,8.85249,3.73864.8126.09339,1.62515.18677,2.62037.30121-.503.63971-.86448,1.09943-1.226,1.55921l-.70373.84643c-.72958-.36163-1.44808-.71783-2.18714-1.08416-.3694.29638-.76624.61474-1.53375,1.23059.91962.759,1.777,1.46655,2.63438,2.17419l-.23112.28082c-.40724-.24237-.80487-.50384-1.22527-.72C38.43334,76.98011,38.04063,76.74879,37.87281,76.84492Zm-.75966-8.09967c.55478.00873,1.10949.01745,1.53863.02423l.395-.77576c1.578,1.29254,2.95589,2.42114,4.48576,3.67426-3.31216-.3794-6.42145-.69983-8.05026-3.99866a2.80921,2.80921,0,0,1,3.00483-.62183c-.51911.46851-1.0465.94452-1.5739,1.4206Zm3.14006-.97992c1.32395-1.2323,1.3245-1.2323,1.84874-.09888C41.37423,67.70539,40.81372,67.73536,40.25321,67.76533Zm-3.655,2.07837-.151.29077-3.28195-1.799C35.08246,67.39277,35.52024,69.25489,36.5982,69.8437ZM49.23942,87.99732c0,.17664-.36842.41577-.612.50788A17.614,17.614,0,0,1,44.668,89.86109a11.62116,11.62116,0,0,1-4.3569-.42071c-.42447-.11737-.75853-1.3808-.77333-2.12018-.04113-2.06244.08341-4.12714.21051-6.18561.01532-.24817.45076-.46051.68649-.69446.30033-.29815.88641-.63983.84818-.89654-.39543-2.65259,1.38438-4.12372,2.91843-5.73578.23178-.24353.49936-.45294.84526-.76319a30.01828,30.01828,0,0,1,2.92763,2.86475,5.39079,5.39079,0,0,1,.70392,2.24493,20.7634,20.7634,0,0,1,.44383,3.12159C49.22185,83.51514,49.23926,85.75727,49.23942,87.99732ZM53.33888,72.551c.27334.8545.46088,1.4408.7133,2.2298l-1.31766-.70813c-1.05532,1.11774.97137,1.62909.57273,2.761a6.53027,6.53027,0,0,0-.839-.6883,6.11546,6.11546,0,0,0-.95405-.35705,3.16481,3.16481,0,0,0,.19523,1.03021,17.94859,17.94859,0,0,0,1.24926,1.66766c-.67569-.19769-1.17577-.38043-1.69049-.483a9.78771,9.78771,0,0,0-1.31859-.09338c.45313-1.98908-1.15275-2.84509-2.361-3.89807a4.80583,4.80583,0,0,0-1.11355-.5506l.4741-.54315c3.26992-.33081,6.53984-.66168,9.88738-1.00037C55.87474,73.9759,55.87474,73.9759,53.33888,72.551Zm28.5966-31.34216-.39168.384q-2.16306,2.26337-4.32638,4.52655a6.41079,6.41079,0,0,0-2.0335,3.9516c1.35.39044,1.58758.22388,1.68456-1.07019a7.466,7.466,0,0,1,.26246-1.14306l.45189.07617c-.0937.68084-.13954,1.37323-.28878,2.04071a27.5742,27.5742,0,0,1-6.5315,12.82226,28.34432,28.34432,0,0,1-5.36576,4.88227A18.09652,18.09652,0,0,1,55.1721,70.85706c-2.30145-.03839-4.59355.64783-6.9063.85346-2.09873.18658-4.23242.2063-5.66968-2.02783.86152.27655,1.72455.54852,2.58346.83325.18079.05993.33907.20386.52111.24457.55294.12371,1.11241.21588,1.66935.32031-.14178-.52777-.28669-1.067-.47933-1.78473a5.81138,5.81138,0,0,0,1.03791.70355,2.62241,2.62241,0,0,0,1.06322.00989,5.99628,5.99628,0,0,0-.09172-.95722,2.22373,2.22373,0,0,1-.17263-1.054q.73134.68784,1.46279,1.37561c.08483.07977.15654.19794.25634.23346.59383.21118,1.19411.40332,1.79218.60187a8.54363,8.54363,0,0,0-.4333-2.12335c-.26223-.55-.98024-.88886-.62389-1.68439.02291-.05115-.48761-.48255-.57938-.43231a3.53443,3.53443,0,0,1-3.62788.28625c-.0825-.04468-.26741.10419-.51.20813.21346.35065.4004.65753.58727.96448-.69958.4057-.69958.4057-2.11592-.65125.23959.4281.47912.8562.713,1.27423a1.18572,1.18572,0,0,1-1.97245-.184c-.72652-.9309-1.50669-1.82031-2.28044-2.74768-.61726,1.2024-1.83012,1.5293-2.61981.64734.833-.533,1.6531-1.05847,2.47415-1.58221.22226-.14179.55644-.22852.64589-.42926a3.0771,3.0771,0,0,0,.09964-.98462c-.31814.02307-.70215-.05939-.94268.08813-.8728.53528-1.69292,1.15436-2.545,1.72406a1.619,1.619,0,0,1-.50264.13214,2.62876,2.62876,0,0,0-.10609-.55328,4.849,4.849,0,0,0-.52618-1.02466c-.06988-.094-.55681-.03741-.56338.00251a1.93073,1.93073,0,0,0-.01428.93719c.34739.92865.24349,1.58527-.78031,1.96283a1.61831,1.61831,0,0,1-2.20532-.61188c.12767-.51123.23623-.946.34485-1.38086-.37782-.09533-.75564-.19061-1.06456-.26855a7.91078,7.91078,0,0,1-.9792-.97986,6.57769,6.57769,0,0,1-.893-1.6604c-.02972-.08734.73991-.414,1.11957-.66058.32572-.21155.62253-.46692.93213-.703-.35429-.062-.70767-.13134-1.06341-.18151-.111-.01569-.23075.04309-.34244.02929-.47148-.05816-.94137-.13086-1.41185-.19824.38476-.22046.77442-.43311,1.152-.66516.15447-.095.28276-.23187.41244-.69788a5.38827,5.38827,0,0,0-1.20709-.04565c-1.4564.27057-2.89722.61859-4.35484.88244a2.89272,2.89272,0,0,1-.99383-.19226l.06025-.272,1.25673-.50244c-.26262-1.50678-2.24847.38452-2.27743-1.51233a5.835,5.835,0,0,0,.98762-.31061c.16107-.08044.34943-.35638.31695-.50049-.03778-.16778-.38177-.44354-.45905-.40582-1.63735.79962-1.993-.4884-2.5133-1.52759-.04332-.08642-.17348-.13043-.505-.36566.11436.80322.199,1.398.29008,2.03729-.20555-.24371-.41739-.49493-.6293-.74615l-.229.04529a4.04173,4.04173,0,0,0,.27148,1.30414A32.91157,32.91157,0,0,0,25.464,61.16023c.64053.70465,2.03425,1.0426,2.31251,2.03613.39121,1.397,1.49424,1.88678,2.51372,2.67376a2.76911,2.76911,0,0,0-.36241.43488c-.67369,1.29474-.686,1.3233-1.94006.57a33.16846,33.16846,0,0,1-3.69208-2.38129,10.39865,10.39865,0,0,1-3.298-5.044c-.03565-.10876-.00626-.24658-.06146-.33911-.25313-.42395-.52565-.83661-.79117-1.25329-.20022.47418-.4005.94836-.61578,1.45819A11.14,11.14,0,0,1,16.893,52.54029c-.00543-.923,1.08348-1.83337,1.73327-2.84314.636,1.11011.48933,2.71735,2.22007,2.70484,1.4599-.01056,1.66392-1.46253,2.46348-2.29822a8.64188,8.64188,0,0,0,.85416.88275c1.09622.84082,1.75856.72455,2.59088-.35291.46233-.59857.98407-1.15088,1.47254-1.71649,1.96587,1.20557,2.43546,1.009,4.08278-1.55523,1.12841.363,2.45819,1.25177,3.225.91137.809-.35919,1.08088-1.89117,1.58454-2.90509a17.79843,17.79843,0,0,0,1.57178.8465c.76423.32922,1.23208.01184,1.19336-.80457-.03573-.7528-.20615-1.50164-.32052-2.274,3.13468.47735,3.67511-.196,2.58239-3.28718,1.13274.38709,1.76015-.251,2.40415-.97015.67735-.75635,1.25825-1.47156.36294-2.62457,2.38114-.11005,4.59368-.33295,6.78832.42938a5.13778,5.13778,0,0,0,1.68426.28619c2.06959-.01312,4.1375-.095,6.20664-.134.79027-.015,1.33925-.258,1.28458-1.12372.52511.00824,1.11974.19171,1.48683-.017a2.85271,2.85271,0,0,0,1.37968-1.40344,9.34346,9.34346,0,0,0-.08655-2.668c1.29223.65735,1.52068-.51471,2.1234-.97986.1-.07714-.09843-.61395-.23694-.90191a5.34057,5.34057,0,0,1-.55374-1.20844c1.00747.51929,1.49785.36658,1.60952-.68725.02316-.21863.335-.38733.44315-.61371a4.86819,4.86819,0,0,0,.23612-.81964l-.79026-.19434c-.26525-.454-.56567-.96844-.91529-1.567l2.41894-5.07727.3383.18445c-.29172.51166-.60064,1.01422-.86921,1.538a6.3843,6.3843,0,0,0-.46654,1.14056,16.1484,16.1484,0,0,0-.52419,2.19464c-.04352.311.18458.66468.37947,1.28754.60707-1.12512,1.79719-1.51007,1.23922-2.8067-.09664-.22467.4097-.66217.55916-1.034.48912-1.21728.9958-2.43274,1.37092-3.68811.09273-.3103-.2868-.76916-.56081-1.428.60561-.943,1.34806-2.0993,2.09051-3.25555l.31058.13116c-.52786,2.051-1.0356,4.10767-1.58738,6.15174a164.67685,164.67685,0,0,1-5.6042,16.93377c-.068.17438-.22025.3758-.17767.52173a7.90966,7.90966,0,0,0,.46111,1.04822c.25966-.24048.61953-.43231.76-.73053.40867-.86792.72957-1.77838,1.08488-2.67224l.31221.011a11.50021,11.50021,0,0,0,.198,1.53693,2.74252,2.74252,0,0,0,.51514.75946c.16387-.21735.41993-.41266.474-.65625.15415-.69379.22605-1.40729.34242-2.19519a3.53191,3.53191,0,0,0,.96405-.36059c.22985-.16462.32455-.51575.47923-.78406-.274-.08679-.54528-.18482-.82262-.25806-.54242-.14319-1.08819-.27258-1.5843-.39569.26465-.63977.52187-1.26147.779-1.88318l.262.035c-.0642.389-.12833.778-.232,1.40679.38481-.0465.84986.03864,1.05214-.153.67037-.635,1.24611-1.36969,1.8581-2.06616l.37493.24438c-.18911.44617-.39236.88672-.56494,1.33948q-1.25355,3.28784-2.49266,6.58136a.43421.43421,0,0,0-.05641.2196c.1187.48877.196,1.36225.3882,1.39264.74546.11774.71743-.57226.90591-1.1278.60632-1.78687,1.32932-3.53327,2.0453-5.27918.09519-.23218.44333-.5578.61678-.52338,1.14662.22773,1.13763-.76971.91844-1.17236-.56594-1.03973.30876-1.51849.44485-2.20892.291.307.52766.55676.76438.80652a13.345,13.345,0,0,0,1.01807-1.66785c.03949-.08716-.53005-.4588-.85757-.732,1.59894-3.95111,4.36683-7.25531,7.305-10.43731l.2507.16223c-1.438,2.37823-2.87609,4.75653-4.34652,7.18835-.15424-.26245-.30388-.517-.48466-.82452-.18725.10553-.39529.1524-.41824.24713a15.57461,15.57461,0,0,0-.37778,1.9176c-.03571.31775.252.73542.13306.97553-1.529,3.08533-3.105,6.14673-4.516,8.9137-.59512.15954-1.814,3.90167-2.2868,5.08813-.12555.31494.1155.78131.18823,1.17816.276-.22851.64133-.40375.8119-.69519.576-.98413.82256-2.25922,2.30111-2.35882.28567-.01929.60674-.16492.84733-.07447.9147.34381,1.06654-.07965,1.00649-.85571a7.86776,7.86776,0,0,1,.06462-1.12311c-.73942-.90478-.23953-1.58221.3865-2.23657q.18534-.19757.37073-.3952c.766-1.10034.90857-1.0838,1.57937.06463a4.39066,4.39066,0,0,0,.82047.76038,16.94819,16.94819,0,0,0,.3539-1.73316,5.24822,5.24822,0,0,0-.11864-1.0935c-.3272.14026-.65434.28046-1.22981.5271.27026-.49317.45866-.83692.6483-1.183a10.56541,10.56541,0,0,0,1.29193.57038c.83894.242,1.46358-.17395,1.307-.98761-.26145-1.35883.80183-1.88758,1.51135-2.511.84838-.74542,1.33483-2.40655.558-3.29211.95262-.735,1.90061-1.46643,2.86781-2.21271.246.40894.44981.74774.65367,1.08661l.39837.04193q.23658-.88056.47329-1.76123l-.32688-.1734c.792-.41968,1.58392-.8393,2.61165-1.38391-.29341.49615-.43165.79315-.62527,1.04779q-5.2001,6.8398-10.41387,13.66919c-1.49614,1.95868-3.0273,3.89081-4.49265,5.87231-.18115.24494-.05359.72052-.06906,1.08917a2.87548,2.87548,0,0,0,1.05877-.31817,7.204,7.204,0,0,0,.96537-1.27442c.251.27875.46488.51618.68478.76044-.76809,1.42548-2.51356,2.19849-2.70888,3.92566l.42024.33966c.83392-.8219,3.56093-2.82764,3.64088-3.18835a22.89885,22.89885,0,0,1,2.94383-3.141q1.68188-1.52847,3.35636-3.05041c.33515.31873.59843.56909.88983.84613Q83.56349,39.565,81.93548,41.20887ZM45.93782,69.76447c.16816-.25854.33638-.51709.519-.79785.08117.0589.15617.11762.23307.17652-.31991.38665-.46863.5664-.60671.73333Zm3.36811-1.90533c.8268-.51648,1.15455-.269,1.55549,1.17517Zm30.463-29.13367c-.66752.81952-1.3351,1.6391-2.06912,2.54028-.33925-.21765-.63924-.41-.99478-.63806.70478-.81067,1.34745-1.55,1.95925-2.25372C79.09235,38.5102,79.431,38.61793,79.7689,38.72547Zm6.877-1.97656c-.331.21008-.86.11359-1.3.15472l-.13613-.4107c.62665-.49634,1.25336-.99268,1.89946-1.50446C87.89666,35.97761,87.18213,36.40864,86.6459,36.74891Zm1.16528-2.33228q.9579-.35751,1.91581-.7149C89.17236,34.153,88.94763,35.27912,87.81118,34.41663Z"/><path d="M76.13494,34.63024l1.24982.075c-.12452.32374-.262.643-.37032.97234-.13853.421-.26894.84609-.37576,1.27657-.25583,1.031-.398,1.06843-1.26028.30145l.01063.02283.3752-2.253Z"/><path d="M81.1038,37.12022c.92822-.1799,1.02966.38833.98512,1.08867l-.39834.384C80.53006,38.48648,80.7818,37.81735,81.1038,37.12022Z"/><path d="M54.98,68.86722c.14572.11657.34123.20558.42617.35578a6.313,6.313,0,0,1,.34161.852c-.30932-.00024-.70088.12122-.91249-.02367-.61911-.42394-1.86822.0305-1.84292-1.26125a1.05711,1.05711,0,0,1,.47956-.70782c.39642-.25476.9077-.3398,1.28909-.60994a17.72068,17.72068,0,0,0,1.48393-1.29884l.30514.20461-.56427,1.30856c.59868.65689,1.20283.49881,1.73954-.0681.49517-.523.91291-1.11887,1.39708-1.65326a2.21159,2.21159,0,0,1,.60989-.34212c.09288.18789.18086.37834.2796.56317.2591.485.52289.96758.887,1.63983l2.20339-2.62585c.18286.21081.54267.51152.4992.59356a17.36263,17.36263,0,0,1-1.1702,1.87392c-.282.39931-.64265.74144-.94893,1.1246a1.42185,1.42185,0,0,1-2.19993.28328c-.60967-.52783-1.026-.5396-1.49777.08112-.69909.91973-1.145.05779-1.6852-.269a6.34029,6.34029,0,0,0-.97425-.39522Z"/><path d="M66.34,62.22647a.93828.93828,0,0,1,.42159.17343c.68806.48027.94588.10586,1.15119-.49315.119-.34725.29848-.67286.45075-1.00822.35266.19135.91553.31489,1.0086.59.13879.41027.1133,1.1937-.13726,1.34816-.69438.428-1.051,1.52488-2.20717,1.20215-.12978-.03623-.4573.55748-.64493.88705-.45583.80072-.85969,1.63263-1.34045,2.41707-.10632.17348-.44417.20261-.67542.29821a6.643,6.643,0,0,1-.18338-.78709c-.08445-.74835.44816-1.10845.85029-1.6385A13.33947,13.33947,0,0,0,66.34,62.22647Z"/><path d="M72.32428,56.53172c1.18841.991,1.13272,1.246.13541,2.149-.58186.52688-.905,1.33146-1.45928,1.899-.222.22737-.75272.20062-1.14168.18907-.11943-.00355-.32446-.34179-.32493-.5243-.00041-.15934.25877-.4681.35694-.44907,1.02844.1993,1.15456-.63435,1.46569-1.23671C71.68273,57.92706,71.97136,57.27545,72.32428,56.53172Z"/><path d="M26.156,20.957c2.21828.04448,4.69213,1.75637,5.21808,3.43456a2.83624,2.83624,0,0,1-1.80927,3.34593,2.082,2.082,0,0,1-1.45082-.42854C26.21025,25.8626,26.05759,21.07329,26.156,20.957Z"/><path d="M22.32632,18.89339c-.94335-.02556-1.44489-.59576-1.428-1.6235.02-1.21609.78336-2.11567,1.75228-2.06495a2.76123,2.76123,0,0,1,2.06462,1.9132C24.72246,17.98256,23.4556,18.924,22.32632,18.89339Z"/><path d="M40.56316,72.512,41.9549,74.3948a1.369,1.369,0,0,1-1.89224-1.47368C40.09033,72.7587,40.38954,72.64712,40.56316,72.512Z"/>></svg>