<svg xmlns="http://www.w3.org/2000/svg" xmlns:xlink="http://www.w3.org/1999/xlink" version="1.1" x="0px" y="0px" viewBox="0 0 100 125" enable-background="new 0 0 100 100" xml:space="preserve"><g><path d="M59.6,2.7c0.4,0.9,0.8,2.2,0.7,3.4c0,0.2,0,0.5,0,0.8c0.2,1.8,0.3,3.6,0.7,5.2c0.1,0.5,0.4,1,0.4,1.5   c-0.1,0.5-0.5,0.8-0.3,1.2c-1.4,0.9-2.8,0.1-4.3-0.3c0.3,1.1,0.1,2.4,0,3.8c0.1,0.2,0.3,0.2,0.5,0.3c0.8,1.6,2,3,2.2,5.1   c0,0.6-0.1,1.4,0.1,1.8c-0.1,0.9-1.6,2.4-1.9,2.5c-0.4,0.3-0.5,0.3-0.8,0.8c0.1,0.7-0.2,1.7,0,2.5c0.1,0.3,0.5,0.8,0.7,1.1   c0.5,0.8,0.9,1.4,1.4,2.2c0.4,0.7,0.6,0.9,0.8,1.8c0.3,1,0.6,1.9,1.1,2.7c0.8,1.4,1.7,2.6,2.4,4.3c0.3,0.8,0.8,1.5,0.8,2.2   c0.1,0.4-0.1,0.9,0,1.3c0.1,0.7,0.4,1.4,0.4,2.1c0.1,0.7,0,1.5,0,2.3c0.1,0.9,0.3,1.8,0.3,2.6c0,0.4-0.2,0.7-0.3,1.1   c-0.2,0.6-0.2,1.6-0.4,2.3c0,0.2,0,1.2,0.1,1.7c0.2,2,0.8,4,0.7,6c-0.1,2.2-0.5,4.3-1.1,6.4c0.2,0.6,0.4,1.1,0.5,1.7   c0.1,0.6-0.2,1.4,0,1.8c0.1,0.5,0.8,1,1.1,1.4c0.3,0.5,0.6,1,0.9,1.5c1,0.8,2,1.6,2.9,2.5c-0.1,1.1-0.2,2.3-0.4,3.4   c-0.1,0.4-0.3,0.9-0.3,1.3c-0.1,1.1,0.8,1.8,1.4,2.6c-0.3,1.5-0.5,3.5-0.7,5.2c-0.1,0.8,0.1,1.6-0.3,2.1c-0.2,0.1-0.8,0.1-0.8-0.2   c-0.2,0.3-0.1,0.7-0.2,1c-0.2,0.4-0.6,0.6-0.8,0.9c-1.2-0.2-2.5,0.9-3.6-0.1c-0.6,0.3-1-0.2-1.5-0.3c-1.1-0.2-2.2,0.3-2.7-0.1   c-0.3-0.4-0.1-0.9-0.1-1.4c-0.1-0.1-0.4,0.2-0.5,0c-0.8-0.8-1.8-1.2-3.1-1.5c-0.2,0.3-0.7,0.3-0.9,0.6c-0.1,0.2,0,0.5-0.1,0.8   c-0.1,0.1-1.1,0.7-1.3,0.8c-0.1,0-0.3-0.1-0.5-0.1c-0.3,0-0.7,0.3-0.9-0.1c-0.5,0.5-1.1,0.3-2,0.2c-1-0.1-2.2,0.2-2.9,0.1   c-0.5-0.1-0.9-0.6-1-0.8c-0.4,0.9-2.2,0.2-2.9,0.9c-0.7,0-1.5-0.1-2.2,0c-0.4,0.1-0.7,0.4-1.1,0.4c-0.2,0-0.3-0.2-0.5-0.3   c-0.6-0.2-1.5,0-1.9-0.7c-0.7,0-1.1-0.4-1.6-0.6c0-0.2,0-0.3,0.1-0.4c-1.4,0.2-2.6-0.4-4-0.9c-1-0.3-2-0.7-3.2-0.8   c-2.4-0.3-4.6-0.8-6.3-1.6c-0.6-0.3-1.4-0.7-2.2-1.1c-1-0.4-2.5-0.5-2.4-1.8c0.5-0.4,1.2-0.4,1.8-0.7c0.7-0.2,1.1-0.6,2-0.5   c0.4,0,0.8,0.2,1.3,0.2c0.9,0.1,1.8-0.1,2.7,0c1.6,0.1,3.1,0.6,4.6,1c1.6,0.4,3.2,0.3,4.6,0.9c0.3,0.1,0.1-0.3,0.3-0.3   c0.2,0,0.2,0.3,0.4,0.3c-0.4-2.7-0.6-5-0.6-7.6c0-0.2-0.1-0.5,0-0.7c0.1-0.3,0.5-0.6,0.7-1c0.5-0.6,0.9-1.3,1.3-2.1   c0.2-0.4,0.5-0.9,0.5-1.2c0.1-0.6-0.5-1.6-0.7-2.3c-0.3-0.8-0.6-1.7-0.8-2.2c-0.3-0.8-0.5-1.3-0.7-2.3c-0.1-0.5-0.2-0.9-0.3-1.4   c-0.1-1.2-0.1-2.7-0.3-3.9c-0.1-1.1-0.1-1.8-0.3-2.9c0.3-0.6,0.7-1.1,1.1-1.6c0-2.1-0.4-3.9-0.5-6c-0.1-2.6,0-5.3,0.1-7.7   c0.1-1.5,1.2-3.1,2.2-4.1c0.1-1.7,0.5-3,1.1-4.2c1.4-0.9,2.7-2.4,3.4-4.3c0.2-0.5,0.6-1.2,0.6-1.6c0-0.3-0.3-0.4-0.5-0.7   c-0.1-0.2-0.3-0.7-0.4-0.9c-0.1-0.2,0-0.5-0.1-0.7c-0.1-0.3-0.3-0.4-0.4-0.7c-0.3-0.9,0.2-2,0.1-2.8c-0.1-0.7-0.7-0.8-1-1.4   c-0.4,0.5-0.5,1.2-1.2,1.5c-0.5,0-0.8-0.1-1.2,0c-0.5,0.1-0.7,0.5-1.4,0.2c-0.7-0.3-1.3-1-2.1-1.2c-1-1.2-2-2.5-3.6-3.1   c-0.3-0.6-0.7-1-1.3-1.3c-0.4-0.6-0.6-1.4-1-2.1c0.1-0.3,0.3-0.3,0.1-0.6c0.4-0.7,0.9-1.4,1.2-2.1c0-0.6,0.1-1.1,0.4-1.4   c0.3-0.4,0.8-0.6,1.3-1.1c0.2-0.2,0.3-0.6,0.5-0.8c0.4-0.5,1.1-1,1.5-1.6c0.3-0.5,0.4-1,0.7-1.2c0.2-0.2,0.7-0.3,1-0.6   c0.3-0.2,0.5-0.5,0.7-0.6c0.4-0.2,0.8,0,1.3,0c0.3,0.4,0.4,0.9,0.8,1.1c0.3,0,0.4-0.4,0.6-0.5c0.3-0.2,0.7-0.2,1.1-0.4   C40.4,8.3,41.8,7.6,43,7c1-0.5,1.8-1,3.1-1.1c0.3-0.5,0.7-1.1,1.1-1.7c0.6-0.8,1.2-1.3,2.4-1.4c0.7-0.1,1.5,0,2.2,0.1   c1.6-0.1,3.2-1,4.8-1C57.7,1.9,58.6,2.4,59.6,2.7z M44.2,87.7c0-1.2,0.3-2.3,0-3.3c-0.1-0.5-0.5-0.9-0.7-1.4   c-0.4-1-0.8-2.3-0.7-3.6c-0.1-0.1-0.3-0.1-0.2-0.3c0.1-0.5,0.5-1.1,0-1.4c0.1-0.9,0.3-1.9,0.2-2.7c0-0.5,0.1-1,0.1-1.5   c0-0.3,0-1.9-0.3-2c0.3-1.9,0-4.6-0.2-6.7c0.1-0.1,0.2-0.2,0.2-0.3c0-0.6-0.5-1.8-0.7-2c-0.1,0.5-0.3,2.5-0.7,2.7   c-0.4,0.1-0.7,0-0.8,0c0.6,2.2,1.3,5.2,1,7.4c-0.2-0.2-0.6-1.6-0.7-2.1c-0.4-1.7-0.8-3.9-1.5-5.3c0.1-0.2-0.8-2.2-1.1-2.9   c0.3,0,0.4-0.2,0.7-0.1c0.5,0.3,0.6,1.1,0.9,1.5c0.1-0.4,0-0.9,0-1.3c0.3,0,0.7-0.3,0.9,0c0.3-0.8,0.3-2.3,0.2-3.3   c0-0.4,0-0.6,0.1-0.9c0.1-0.6,0.1-3,0.7-3.2c1-0.2,0.4,1.7,0.3,2.3c-0.1,0.5,0,0.9-0.2,1.3c0.3,0.8,0.4,1.7,0.7,2.5   c0.2,0,0.3,0.1,0.3,0.2c0.1,1.2,0.8,1.7,0.8,2.8c0.2,0.2,0.4,0.5,0.4,0.9c0.1,2.8-0.7,6.6-0.2,9.4c0-0.2,0.2-0.3,0.2-0.4   c0.9-0.1,2.6-1.7,3.2-0.5c-1.2,0.2-2,0.7-2.7,1.3c-0.3,0.7-0.2,1.5-0.3,2.3c-0.2,0-0.3,0.1-0.5,0.1c0,0.6,0,1.2,0.3,1.6   c-0.2,0.7,0,1.6,0,2.4c0.3-0.1,0.4,0,0.5,0.2c0.1,0.4-0.2,0.5-0.2,0.8c0.4,0.8,0.6,1.9,1.1,2.7c-0.2,1.4-0.2,4.4-0.3,6.2   c0,0.6-0.3,1.5-0.1,1.9c0.1,0.1,0.3,0.2,0.4,0.3c0.2,0.2,0.1,0.5,0.4,0.5c0.4-0.5,0.4-1.1,0.8-1.6c0.4-0.5,0.6-0.5,0.7-1.2   c0.1-1.2,0.4-2.9,0.5-4.2c0-0.4,0-0.7,0.2-0.9c0.2-0.2,0.2,0,0.5,0c0.1-1,0-2,0.1-3.1c1.5-1.3,2.1-4,2.2-6.4c0-0.2,0.3-0.2,0.2-0.4   c-0.1-2.3-0.7-5.2-0.8-8.1c0-0.2,0.2-0.2,0.2-0.3c-0.1-0.4-0.2-0.8,0-1.2c0.4-0.1,0.7,0,0.9,0c0-0.5,0.2-0.9,0.4-1.3   c-0.5-0.5,0.1-1.3,0.5-1.5c1.1-1.5,1.1-3.7,1.2-6.1c-0.1-0.2-0.1,0.1-0.2,0.1c0.1-0.2,0.1-0.5,0.2-0.6c0.3,0,0.5,0.1,0.7,0.3   c0.3,1.1,0.1,2.2-0.1,3.4c-0.2,1.1-0.5,2.2-0.2,2.8c-0.6,1.2-0.6,2.8-0.6,4.6c0,0.8,0,1.6-0.1,2.5c-0.1,2.3-0.6,4.9-0.6,7   c0,0.9,0.3,2.2-0.3,2.4c-0.4-0.1-0.6-0.2-1.1-0.2c-0.3,1.1-0.7,2.2-1.5,2.9c-0.4,1.1,0,3-0.5,4c-0.2,0-0.4-0.1-0.6,0   c0,1.7-1.4,5.1,0.7,5.7c1.2-1.2,2.9,0.3,3.4,1.5c0.1-0.8-0.2-1-0.5-1.4c0-0.3,0.4-0.2,0.5-0.5c0.1-0.5-0.2-1-0.1-1.6   c0.1-0.7,0.8-1.3,0.9-2c0.3-1.3-0.2-2.8-0.2-4.3c0-0.5,0.6-2.9,0.9-2.8c0,0.4-0.2,0.7,0,1c0.6-1.4,1.1-3,1.8-4.5   c0.1,0,0.3,0,0.3-0.1c0.2-0.4,0.3-0.9,0.4-1.4c-1.3-0.3,0.2-3.3,0.5-3.6c0.3-1.2,0.8-2.2,1-3.5c0-0.1-0.3-0.1-0.3-0.2   c0.1-0.2,0.3-0.4,0.3-0.6c-0.2-0.6,0.5-1.1,0.4-2c0-0.2-0.4-0.1-0.4-0.3c0-0.3-0.1-0.2,0-0.5c-0.9-0.5-0.6-2-0.5-3.1   c0.3-3.1,0.9-7.3,2.2-9.2c0.2,0,0.4,0,0.6,0c0-0.2,0.1-0.5,0.2-0.6c0.3-0.1,0.4,0,0.6-0.1c-0.3-0.1-0.6-0.2-0.7-0.5   c0.2-0.5,0.2-1.3,0.4-1.8c-0.4,0.3-0.2,1.2-0.6,1.4c-0.9-0.1-0.6-0.9-0.7-1.6c-0.1,0.9-1.4,0.7-1.5-0.1c1.2-1.2,1.9-3,2.3-4.9   c0.1-0.1,0.3-0.1,0.3-0.3c0.3-0.9-0.3-1.6-0.4-2.1c-0.7-0.6-1.1-1.5-1.8-2.1c0.7-1-0.5-1.8-0.4-2.9c0.1-0.1,0.4,0,0.4-0.2   c-0.3-1-1.2-1.9-1-3c-0.6-0.8-0.9-1.8-1.7-2.3c0,0.2,0,0.3-0.2,0.3c-0.5-0.3-1-0.8-0.8-1.7c-0.4-0.1-0.7-0.5-0.8-0.8   c-0.8,0.2-1.4,0.7-2.3,1c-0.7-0.3-2-0.1-2.7-0.4c-0.1-0.1-0.2-0.1-0.2-0.3c0.2-0.1,0.5-0.3,1.1-0.1c-0.2,0,0.4,0.2,1-0.1   c-0.7-0.3-1.4-0.6-1.6-1.3c-0.2,0.1-0.4-0.1-0.6-0.2c0.1,0.4,0.8,0.6,0.5,1.1c-0.7,0-0.9-0.8-1.3-1.1c-0.2-0.1-0.4,0-0.6-0.1   c-0.3-0.2-0.4-0.6-0.8-0.7c-0.3,0.2-0.5,0.5-0.8,0.7c0.2,0.1,0.4,0.3,0.5,0.6c-0.4,0.7-1.1,1.1-1.6,1.6c0.1,0.3,0.5,0.4,0.5,0.7   c0.1,0.6-0.7,1.3-0.6,2.1c0.1,0.5,0.4,0.4,0.4,1c-0.1,0.2-0.3,0.1-0.4,0.3c0,0.5,0.4,1.2,0,1.6c0.3,0.9,1,1.4,1.2,2.2   c0,0-0.1,0-0.1,0.1c-1.2,0.1-1.2-1.4-2-1.8c-0.2-1.3-0.5-2.4-1-3.4c-0.2,0.6-0.6,0.9-0.5,1.7c-0.1,0.2-0.3,0.2-0.6,0.2   c-0.7,1.2-1.8,2.1-2.5,3.3c-0.1,0.2-0.3,0-0.3,0.2c-0.9,0.9-1,2.7-1.2,4.3c-2.5,2.6-0.6,8.1-0.8,12.3c-0.2,0.4-0.1,1.1,0.1,1.7   c0.2,0.7,0.5,1.5,0.6,2.1c-0.2,0-0.2,0.3-0.4,0.4c0-0.1-0.2-0.4-0.2-0.1c-0.1,0.4-0.2,1.2-0.9,1c-0.3,0.4-0.6,0.8-1.1,1.1   c0.1,2.5,0.5,4.7,1.1,6.7c0.5,0.6,0.8,1.6,1.1,2.5c0.7,2.3,1.7,4.7,2.3,6.9c0.8,2.9,0.7,6.3,1.1,8.9c-0.8,0.4-0.4,2.5-0.3,3.2   c-0.2,0.2-0.1,1.2,0.1,1.6c-0.1,0.2-0.2,0.4-0.3,0.6c-0.3,0.1-0.5,0.1-0.7,0c0,0.2,0.1,0.2,0.1,0.5c0.8,0,1.3,0.4,1.7,0.9   c0.6-0.2,1.6-0.6,2.1-0.1c0.2-0.2,0.5-0.3,0.9-0.3C44.3,91.1,44.1,89.4,44.2,87.7z M36.1,9.5c-0.4,0.1-0.6,0.4-0.9,0.6   c-0.2,0.1-0.4,0.2-0.5,0.3c-0.2,0.3-0.3,0.7-0.6,1c-0.7,1-1.6,1.7-2,2.9c-0.4,0.2-0.7,0.6-1,1c0.1,1.3-0.4,2.5-0.8,3.5   c0.3,0.5,0.7,0.7,1.1,1.1c1.1-0.2,1,1.3,1.5,1.8c0.6,0.3,1.3,1.1,2,1.6c0.6,0.5,1.2,1,1.8,1.5c1.5-0.5,2.7-1.2,3.4-2.5   c0-0.2-0.3-0.1-0.3-0.3c0.3-0.8,0.1-1.2,0-1.9c-0.1-0.8-0.2-1.7-0.4-2.6c-0.1-0.6,0-1.5-0.1-2.1c-0.1-0.3-0.3-0.7-0.4-1   c-0.1-0.4-0.3-0.7-0.5-1c-0.9,0.2-1.1-0.7-1.3-1.4c0.2-0.3,0.8-0.1,0.9-0.2c-0.2-0.3-0.4-0.6-0.6-0.8c0-0.2,0.1-0.3,0.1-0.5   c-0.8,0-0.6-1.2-1.2-1.4C36.1,9.3,36.1,9.4,36.1,9.5z M45.1,23.7c0.1-0.4,0.7-0.3,1-0.1c0.2,0.5,0.1,1.2,0.3,1.7   c0.3,0.2,1.1-0.2,1.3,0.2c-0.1,0.1-0.1,0.3-0.2,0.4c0.8,0.9,1.9,1.4,2.7,2.3c0,0.2-0.1,0.2-0.1,0.3c0.4,0.1,0.6,0.3,0.9,0.6   c1.6,0.2,2.5-0.9,3.5-1.6c1-0.9,2.5-1.2,3.8-1.8c0.5-1.4-0.7-2.8-0.9-4.1c-0.1-0.3-0.1-1-0.4-1.2c-0.6-0.4-1-1.1-2-1.2   c-0.8-0.8-2-1-2.7-1.9c-0.4-0.5-1-1.3-0.9-1.9c0.3,0.1,0.4,0.3,0.6,0.5c0.5,0.7,0.9,1.5,1.6,2c0.7,0.5,1.8,0.5,2.6,1.1   c-0.3-0.9-0.1-2.4-0.3-3.6c-0.1-0.5-0.3-1-0.3-1.4c0-0.4,0.4-0.9,0.3-1.3c-1.4-1-1.9-3.3-3.1-4.4c-0.7-0.6-1.4-1-2.3-1.5   c-0.8-0.4-1.8-1-2.5-0.8c-0.2-0.1-0.4-0.3-0.6-0.4c-0.2,0.3-0.2,0.8-0.6,0.9c-1.2,0-2.2,0.7-3,1.2c-0.3,0.8,0.4,1,0.2,1.6   c-0.7-0.1-1.1-0.1-1.6-0.4c-0.1-0.2-0.1-0.4-0.2-0.5c-1,0.5-2,1-3,1.5c0,0.2,0.3,0.1,0.2,0.4c-0.3,0.1-0.5,0.3-0.7,0.5   c0.6,0.5,0.8,1.5,1.2,2.3c-0.2,2.5,1.2,3.7,1,6.3c0.8-0.3,1.6-0.5,2.2,0c0,0.1,0,0.3,0,0.4c0.7,0,1.1,1.2,1.5,1.5   c0.6,0.5-0.1,1-0.3,1.6C45,22.4,45,23.5,45.1,23.7z M56.9,2.6c-1.3-0.1-2.6,0.8-3.9,0.9c-0.5,0.6-1.7-0.2-2.4,0.2   c-0.1,0-0.1,0.3-0.3,0.2c0,0.4,0.1,0.5,0,0.7c1,1.6,2.8,2.2,3.7,3.8c0.9,0.4,1.3,1.2,1.5,2.2c1,0,1,1.2,1.3,2   c0.8-0.3,1.5,0.6,1.9,1.2c0.2-0.1,0.3-0.3,0.3-0.5c0-0.3-0.7-2.6-0.9-2.9c0-1.1-0.3-2.3-0.6-3c-0.6-0.2-1.4-0.2-2.1-0.3   c-1,0.6-1.3-0.5-1.6-1.1c0.5-0.1,0.1-0.7,0.3-1.2c0.5-0.1,0.5-0.5,0.8-0.9c0.5-0.1,0.7,0,1,0.2C56,4.4,56.2,5.5,56.2,6   c0.6,0.8,2,0.4,2.8,0.9c0.2-1.3,0.1-2.5-0.2-3.7C58,3,57.6,2.6,56.9,2.6z M30.9,89c-2-0.2-4-1.1-6-1.2c-0.7,0-1.6,0.1-2.3,0   c-0.8,0-1.5-0.1-2.2,0c-0.6,0.1-1,0.7-1.7,0.7c1.6,0.8,3.4,1.3,4.9,2.2c1.7,0.6,3.5,1,5.5,1.2c2.2,0.2,4.2,1.7,6.4,1.6   c0.2-0.2-0.1-0.5,0.2-0.6c0.3,0,0.8,0.2,1.2,0c-0.5-0.3-0.7-0.2-1.3-0.3c0.2-0.8-1-0.8-1-1.3c0-0.3,0.4-0.5,0.7-0.6   c0-0.3,0-0.5,0-0.7c-0.8-0.3-1.3,0.1-2.2,0c-0.1-0.3,0.1-0.4,0.2-0.6C32.6,89.1,31.8,89.1,30.9,89z M60.9,77.7   c-0.1,0.2-0.4,0.5-0.6,0.7c-0.3,0.3-0.4,0.8-1,0.8c-0.2,0.5-0.7,0.9-1,1.3c0.3,0,0.4,0.9,0.2,1c0.9,1.1,1.5,2.9,1.1,4.7   c0.7,1.8,2.9,3.2,3.5,4.9c0.2,0.6,0.2,1.3,0.8,1.8c0.3,0,0.4-0.1,0.7-0.1c0.2,0.1,0.3,0.2,0.2,0.6c0.5-0.2,1.4-0.4,1.9-0.1   c0-0.3-0.1-0.3-0.1-0.6c0.1-0.1,0.2-0.3,0.3-0.4c0.3-1.4,0.1-3.4-0.7-4.1c-0.3-0.2-0.6-0.4-0.8-0.8c0-0.3,0.4-0.3,0.2-0.5   c-0.4-0.2-0.5,0.3-0.9,0.4c-0.1-0.2-0.6-0.2-0.6-0.5c0.3-0.7,0.9-1.2,1.2-1.8c-0.4,0.3-0.7,0.7-1,1.1c-0.5,0-1.2,0.4-1.4-0.3   c1.1-1.3,3.2-2.3,2.7-4.6c0.3-0.3,0.2-1,0.3-1.5c0.1-0.2,0.3,0.1,0.3-0.2c-0.3-0.3-0.7-0.1-1-0.3c-0.2-0.4-0.6-0.7-0.5-1.1   c-0.5-0.3-0.8-0.7-1.3-0.9c0.1-0.3,0.6-0.1,0.7-0.2c-0.2-0.1-0.3-0.4-0.5-0.6c-0.6,0-1.3-0.4-0.9-1c-0.1-0.1-0.2-0.1-0.3-0.2   C62,76.2,61.5,76.8,60.9,77.7z M35.4,81.9c0,0.4,0.9,1,1,1.3c0.3,1,0.3,2.3,0.5,3.4c0.1-0.7,0.3-1.5,0.6-2.3   c0.2-0.7,0.7-1.5,0.8-2.1c0.2-1.3-0.6-3.6-0.9-4.6C36.8,79.2,35.4,79.9,35.4,81.9z M48.1,92.7c-0.7,0.2-0.3,0.9-1,1.1   c-0.3,0.1-0.4,0.5-0.5,0.8c0.4,0.2,0.9,0.2,1.8,0.1c0.2-0.5,0.4-0.9,0.6-1.4C48.3,93.3,48.5,92.9,48.1,92.7z M50.7,95   c0.6-0.1,0.7-0.8,1-1.2c-0.4-0.4-0.7-0.9-1.3-1C49.9,93.4,50.5,94.3,50.7,95z M65.6,94.4c-0.3,0.2-0.7,0-1.1,0.1   c0.6,0.3,0.8,0.9,1.4,1.2c0.3-0.3,0.4-0.8,0.3-1.2c0.1-0.1,0.1,0,0.2,0c0-0.2,0.1-0.3,0.1-0.5C66.2,93.9,65.8,94.1,65.6,94.4z    M41.4,93.8c-0.1,0.6-0.5,0.8-0.3,1.3c0.5,0.1,0.9-0.2,1.3-0.4c-0.1-0.4,0-1-0.4-1.1C41.8,93.6,41.6,93.7,41.4,93.8z M38.8,93.9   c0.1,0.3-0.1,1-0.6,1c0.1,0.3,0.4,0.3,0.7,0.3c0.1-0.6,0.4-1,0.6-1.5C39.3,93.6,39,93.7,38.8,93.9z M43.7,94.7   c0.4,0,0.8-0.2,1.1-0.4c-0.1-0.2-0.1-0.4-0.2-0.6c-0.2-0.1-0.5,0.1-0.5-0.3C43.3,93.3,43.4,94.2,43.7,94.7z"/><path d="M48.2,69c0.5-0.1,0.8-0.1,1.3,0c0.1,0.4-0.1,0.5-0.3,0.6c0.2,0.1,0.4,0.1,0.6,0.2c0.1,0.8-0.7,0.7-0.7,1.4   c0,0.3,0.3,0.5,0.6,0.9c0.4,0.5,0.9,1.8,1,2.4c0.2,0.8,0.2,1.8-0.8,1.5c-0.1-0.2-0.2-0.4-0.4-0.6c0.1-0.3,0.1-0.6,0-0.9   c-0.3,0.2-0.6-0.1-0.9-0.2c0.1-0.6-0.1-1.1-0.3-1.8c-0.1,0.4-0.4-0.8-0.5-1.1c-0.1-0.1-0.2-0.2-0.4-0.4c-0.4-0.6-0.5-1.4-0.8-1.8   c0.1-0.2,0.3-0.3,0.5-0.3c-0.2-1.1-0.8-1.8-1.3-2.7C47.6,65.9,47.7,68,48.2,69z"/><path d="M47.8,14.6c0.7,1.5,2,2.6,2.1,4.5c-0.4,0-0.7-0.5-0.9-0.8c-0.7-1-1.6-2.3-1.9-3.6C47.4,14.5,47.5,14.6,47.8,14.6z"/><path d="M44.8,15.2c0.1,0.4-0.2,0.4-0.3,0.6c0.5,0.1,0.9,0.2,1.3,0.6c0.1,0.8-0.8,0.6-1.3,0.4c0,0.2,0.3,0.1,0.2,0.5   c-0.3,0.3-0.7,0.3-1,0.6c-1.4,0.1-2-0.5-2.9-0.8c-0.2-0.4-0.1-0.9,0.3-1C41.3,14.7,43.8,14.4,44.8,15.2z M42.6,15.6   c0.2,0,0.4,0.1,0.4,0.3c-0.2,0.1-0.3,0.3-0.5,0.5c0.5-0.1,0.9-0.4,1.1-0.7C43.6,15.2,42.9,15.4,42.6,15.6z"/><path d="M51.5,11.1c-0.1,0.3,0.3,0.4,0.1,0.5c0.2,0.2,0.3,0.4,0.3,0.7c0.5-0.1,0.4-0.7,0.4-1.2c0.4-0.1,1,0,1.4,0.2   c0.3,1.3-0.9,2.2-1.8,2.7c-0.1,0-0.2,0-0.2,0c-0.6,0.4-0.8,1.6-1.5,0.9c0-0.3,0.2-0.4,0.2-0.7c-0.1-0.1-0.7-0.1-0.8-0.4   c0-0.1,0.4-0.5,0.4-0.8c0-0.3-0.1-0.7-0.1-0.9C50.1,11.3,51.1,10.8,51.5,11.1z"/><path d="M45,12.3c0.5,0.4,0.9,1.9,0.1,2.2c-0.5-0.5-0.6-1.3-0.7-2.2C44.6,12.2,44.8,12.5,45,12.3z"/><path d="M45.6,18.8c1,0.2,0.8,2.2,0.5,3c-0.1,0-0.1,0.3-0.3,0.3c-0.3-0.2-0.1-1.3-0.1-2.1C45.6,19.6,45.6,19.3,45.6,18.8z"/><path d="M48.9,12.1c-0.5,0.5-1.1-0.1-1.3-0.6c0-0.1,0.1-0.1,0.1-0.2C48.1,11.2,48.9,11.5,48.9,12.1z"/><path d="M53.4,31.1c0.4-0.1,0.5,0.2,0.8,0.3c-0.1,1.4-1,1.9-1.3,3.1c-0.4,0-0.2,0.9-0.6,1.1c-0.4,0-0.5-0.2-0.9-0.2   c-0.1,0.1-0.1,0.4-0.4,0.4c0.2,0.3,0,0.5-0.2,0.6c-0.6-0.1-1.1-0.7-1.1-1.2c-0.6-0.1-1.1-0.6-1.1-1.2c0.3-0.1,0.3,0,0.5,0.1   c-0.2-0.4-1-0.8-1.6-0.8c0,0-1.4-1-0.1-0.9c0.9,0.1,1.5,0.8,2.1,1.2c0.5,0.3,0.7-0.1,1.1-0.3C52.1,32.7,53,32.2,53.4,31.1z"/><path d="M50.7,38.3c0.6,0.9-0.2,3.3-0.3,4.5c0.6-0.4,1.2-1.3,1.7-2c0.2,0,0.4,0.1,0.5,0.1c0.3,0.2,0,0.3,0.1,0.6   c0.1,0.2,0.4,0.3,0.4,0.5c0,0.2-0.8,1.3-1,1.6c-0.1,0.1-0.3,0.2-0.4,0.3c-0.1,0.1-0.2,0.4-0.3,0.5c-0.4,0.5-1.1,0.8-1.4,1.4   c-0.1,0.1-0.1,0.4-0.2,0.5c-0.4,0.7-1,1.9-0.8,2.7c-0.1,0.1-0.3,0.2-0.3,0.4c0,1.4-0.2,2.9-0.2,4.4c0,1.1,0.4,2.1,0.3,3.1   c-0.2,0-0.3,0-0.5,0.1c-1.2-0.7-0.4-4.1-1.4-5.2c0.3-1.1,1.2-2.8,0.2-3.8c-0.1-0.1,0-0.3-0.1-0.5c-0.8-0.3-1.7-0.5-2.1-1.1   c-0.3,0.5-1,1.9-1.8,0.9c1.2-1.8,2-4,3-6c-0.1-0.4-0.4-0.6-0.4-1.1c0.3,0,0.4,0.1,0.6,0.2c0.7,1.1,1.1,2.5,2.1,3.3   c0.3-0.2,0.5-0.6,1-0.4c0.3-1.5,0.6-3.3,0.7-4.8C50.4,38.4,50.8,38.5,50.7,38.3z"/><path d="M55.6,22c1.6-0.2,0.5,1.5,1,2c-0.1,0.4-0.3,1-0.6,1c0,0.5-0.1,1-0.4,1.3c-0.8,0.8-2.1,0.5-3,0.3c-0.3-0.1-0.4-0.3-0.6-0.5   c-1.1,0.5-2.1-1.1-1.5-2.3c0.3-0.1,1.1-0.2,1.1,0.3c0.7-0.9,1.9-1.3,2.7-2.1c-0.5-0.8-1.5-1-2-1.8c0.1,0,0-0.1,0.1-0.1   c0.7-0.2,1.3,0.3,1.9,0.8C54.8,21.2,55.3,21.5,55.6,22z M55,22.7c-0.9,0.5-2,0.8-2.5,1.7c0.3-0.1,0.4,0.1,0.5,0.2   c-0.4-0.6,0.5-1.1,1-0.8c0.1-0.2,0.2-0.4,0.3-0.5c0.3,0,0.8-0.1,0.8,0.2c0.1-0.2,0.1-0.5,0.2-0.8C55.1,22.8,55.1,22.7,55,22.7z    M51.3,24.9c0-0.3,0.4-0.3,0.5-0.6c-0.2-0.1-0.4,0-0.6-0.1C51.1,24.5,51,24.9,51.3,24.9z"/><path d="M43.9,50.3c0,0.2,0.1,0.2,0.1,0.4c-0.4,0.4-1.5,0.2-1.4-0.3c0.1,0,0-0.1,0.1-0.1C43,50.2,43.6,50.1,43.9,50.3z"/><path d="M50.8,50.3c0.9,0.1,2.1-0.1,2.4,0.6c-0.8,0.2-1.8,0-2.4-0.2C50.9,50.4,50.7,50.6,50.8,50.3z"/><path d="M47.4,57.3c0.2-0.1,0.3,0.3,0.4,0.1c0.2,1.2-0.4,2.6-0.6,3.8c-0.1,0-0.2,0.1-0.2,0.2c0,0.7,0.4,1.5-0.1,1.8   c0.7,0.4,0.6,1.6,0.8,2.3c-0.1,0.2-0.4,0.2-0.3,0.5c-0.3-0.9-0.8-1.6-0.8-2.8c-0.1-0.2,0.2,0,0.2-0.2c-0.2-0.6-0.3-1.5-0.3-2.1   c0-0.2,0.2-0.1,0.3-0.2C46.6,59.5,47,58.4,47.4,57.3z"/></g></svg>