<svg xmlns="http://www.w3.org/2000/svg" viewBox="0 0 5 6.25" x="0px" y="0px"><title>horses icon</title><g data-name="Layer 2"><g><path d="M3.80182.91934A.0985.0985,0,0,0,3.825.92639a.07371.07371,0,0,1,.03439.01928c.01574.01324.03956.04484.01086.05832-.0204.00958-.0453-.01114-.05862-.02443A.07683.07683,0,0,1,3.79517.92367Z"/><path d="M3.873,1.89419a.4418.4418,0,0,0,.00506-.09329c-.00008-.01514-.00064-.03068.00029-.04579.00117-.01867.0068-.03658.0081-.05538l.003-.00056c.00623.03055.02066.05909.02816.08977a.68121.68121,0,0,1,.015.09145.38015.38015,0,0,1-.01445.15906.02041.02041,0,0,1-.03332.01077C3.84134,2.008,3.86232,1.946,3.873,1.89419Z"/><path d="M3.77468,2.657c.0061.01244.015.0211.02189.03282a.3532.3532,0,0,1,.01733.04048c.00963.02243.01755.04457.02817.066.01276-.01867.0279-.03577.04267-.05378A.47155.47155,0,0,0,3.94748,2.642.47963.47963,0,0,0,3.9944,2.5229a.13811.13811,0,0,0-.00067-.06172c-.0063-.02155-.01317-.0422-.01841-.06422a.93488.93488,0,0,1-.02159-.13474.974.974,0,0,1,.03573-.27012c.00929-.04824.01315-.09741.02064-.146.00395-.02557.00845-.05112.01083-.07689.00264-.02851.01043-.05613.01243-.08478.00056-.008.013-.00911.01279-.00072a.3681.3681,0,0,0,.00729.06485c.00352.0231.00512.04635.009.06947a.74917.74917,0,0,1,.01307.134.99281.99281,0,0,1-.01073.13045.80843.80843,0,0,0-.01336.12855c.00062.04438.00733.08826.01229.13225a.89871.89871,0,0,1,.00314.13142.83978.83978,0,0,1-.0501.2449.77074.77074,0,0,1-.0888.19522l.03492.0382a.87049.87049,0,0,0,.15023.13067c.05105.034.10715.05827.1556.09695a.30479.30479,0,0,1,.05519.05246.39157.39157,0,0,1,.04255.07509.57308.57308,0,0,1,.04141.16194.54939.54939,0,0,0,.05333.17823c.01419.02826.02666.05744.04161.08531a.491.491,0,0,1,.0429.08179.27326.27326,0,0,1-.02223.18225c-.013.0292-.03081.056-.04476.08468a.6925.6925,0,0,0-.03246.08762.01907.01907,0,0,1-.03651.002.22885.22885,0,0,1,.02989-.15918c.02086-.04656.06692-.09836.06455-.15189a.15685.15685,0,0,0-.03662-.07406c-.01909-.0287-.034-.05958-.05045-.08979a.83045.83045,0,0,1-.07292-.169c-.0155-.05414-.02311-.11076-.03314-.16607a.42965.42965,0,0,0-.02-.0747.23339.23339,0,0,0-.04108-.07576.40945.40945,0,0,0-.16107-.09826.84852.84852,0,0,1-.08773-.028.63557.63557,0,0,1-.0856-.04927.32926.32926,0,0,1-.14052-.161.44216.44216,0,0,1-.02248-.104c-.00158-.01672-.00078-.03326-.00143-.05a.18747.18747,0,0,0-.0021-.052C3.744,2.6542,3.76734,2.642,3.77468,2.657Z"/><path d="M3.208,2.44952a1.57151,1.57151,0,0,0,.045.23355.68212.68212,0,0,0,.03638.10676c.01733.035.03941.06754.05733.10227l.01053.02193c.00466.011-.001.00175.00742.01a.22877.22877,0,0,1,.03074.04381.2522.2522,0,0,0,.067.056,1.54931,1.54931,0,0,0,.22858.109c.03752.01448.07492.02966.11289.04294a.7054.7054,0,0,1,.112.04065c.03305.01861.06662.035.10053.05191a.312.312,0,0,1,.097.0653,1.36365,1.36365,0,0,1,.14287.20271,2.35693,2.35693,0,0,1,.11347.22761c.0101.02086.02117.04111.03181.06168a.051.051,0,0,1,.00734.03858.123.123,0,0,1-.03179.04381.22856.22856,0,0,0-.04416.05826c-.01416.03127-.03749.06564-.01982.10025.01554.03046.04189.05334.05954.0824a.00987.00987,0,0,1-.01019.01482c-.05637-.015-.149-.05642-.12078-.13156a.26363.26363,0,0,1,.06382-.08072.28268.28268,0,0,0,.03408-.05368l.01486-.02694L4.36094,3.858c-.00144-.00615-.011-.01512-.01456-.02017l-.018-.02611c-.01231-.01854-.02372-.03769-.03491-.05693-.0217-.0373-.03992-.07633-.06086-.114a2.18385,2.18385,0,0,0-.136-.21516c-.02487-.03449-.0549-.06478-.08062-.09862a.14012.14012,0,0,0-.10616-.05911c-.03915-.00252-.07863-.01036-.11767-.01571a.645.645,0,0,1-.06745-.01305.4813.4813,0,0,0-.03788.05709.71435.71435,0,0,0-.04171.098c-.02926.08042-.059.16071-.08747.2414a.60912.60912,0,0,1-.03142.10993c-.01626.02762-.05013.04932-.05731.08111-.017.07518-.02873.15123-.042.22712a.5087.5087,0,0,1-.12973.239.02053.02053,0,0,1-.03326-.0231A.74011.74011,0,0,0,3.344,4.0411a.44092.44092,0,0,1,.05838-.23372c.02137-.02683.06244-.04.07022-.07675.00836-.03947.003-.08125.01013-.12128a1.584,1.584,0,0,1,.08034-.2531.47525.47525,0,0,1,.07555-.14377,1.68988,1.68988,0,0,1-.21234-.09174l-.003-.00156c.00155.01677.00178.03374.00274.0505.00224.03894.00487.07776.00413.11679-.00159.08376-.01447.16683-.02131.25021a.48448.48448,0,0,1-.06057.20719.641.641,0,0,0-.049.19826.52876.52876,0,0,1-.10728.23061.00707.00707,0,0,1-.012-.00616c.01216-.07308.0452-.14266.06221-.21494a1.14514,1.14514,0,0,1,.04092-.19451c.01443-.03387.0365-.06338.0486-.09844a.44571.44571,0,0,0,.01707-.104c.0078-.08176.01877-.164.02187-.24609.00165-.04371.00016-.08759.00041-.13133.00011-.02016-.00038-.04052.00117-.06062a.12274.12274,0,0,1,.00446-.02386A.24319.24319,0,0,1,3.326,3.05158a.13768.13768,0,0,1-.032-.05091.11644.11644,0,0,1,.002-.05441l.00153-.005-.00569-.0094a.26935.26935,0,0,0-.01662-.02718c-.01233-.01782-.02563-.03494-.03806-.05269a.56834.56834,0,0,1-.06259-.1214.66754.66754,0,0,1-.04339-.27673A.03846.03846,0,0,1,3.208,2.44952Z"/><path d="M2.05979,3.09905A.4971.4971,0,0,1,2.199,2.9999a1.53832,1.53832,0,0,0,.19057-.13047q.0447-.036.08887-.07264l.02507-.02068C2.45883,2.75046,2.4146,2.724,2.37,2.69816c-.04149-.024-.07956-.05167-.11951-.07794a.35337.35337,0,0,0-.05181-.02608.10119.10119,0,0,0-.01974-.0086.21115.21115,0,0,0-.036-.00349c-.01834-.00133-.02674-.02742-.00633-.0339a.37972.37972,0,0,1,.04579-.01.1519.1519,0,0,1,.041-.006.36071.36071,0,0,1,.10251.0213,1.25417,1.25417,0,0,1,.20074.10966,2.31225,2.31225,0,0,0,.40635.20849,1.93114,1.93114,0,0,0,.25267.06519.0049.0049,0,0,1-.00071.00965,1.40608,1.40608,0,0,1-.2831-.01272.95687.95687,0,0,1-.27633-.09167L2.5863,2.82189a.33618.33618,0,0,1-.03462.03456c-.02719.02432-.05446.04859-.08278.07159a1.44146,1.44146,0,0,1-.16249.1177c-.05233.03155-.107.05817-.1611.0863-.0169.00878-.04019.01852-.04793.03725a.085.085,0,0,0,.0011.05645.377.377,0,0,0,.0885.11563c.03179.03425.06449.06708.09428.10313.06824.08255.148.20585.08015.31224a.38076.38076,0,0,0-.02447.03505c-.00858.01754.00045.02969.00848.04527a.08976.08976,0,0,1,.01153.0746c-.01136.0295-.03738.05143-.04981.08105-.01381.03291-.01664.06915-.0317.1014a.01415.01415,0,0,1-.0265-.0056.26188.26188,0,0,1,.04338-.17739.09015.09015,0,0,0,.01711-.03081c.003-.01385-.00549-.02394-.01133-.036a.084.084,0,0,1-.00552-.07128c.01086-.02717.02828-.04449.02921-.07543a.24293.24293,0,0,0-.01319-.08691.7387.7387,0,0,0-.171-.26485A.73951.73951,0,0,1,2.0504,3.23.10426.10426,0,0,1,2.05979,3.09905Z"/><path d="M1.32067,3.84135c.00619-.04312.01971-.08486.02619-.12795.00912-.06067.01174-.12229.01822-.18327.00284-.02683.00742-.05337.01216-.07992a.32712.32712,0,0,1,.03147-.08487.35734.35734,0,0,0,.01869-.06687.21209.21209,0,0,1,.02951-.06183.79534.79534,0,0,1,.09343-.1042c.07652-.07963.15852-.15383.23619-.23236.04289-.04335.087-.08683.1322-.12772.04668-.0422.0978-.08235.14012-.12885a.00889.00889,0,0,1,.0144.01c-.026.04756-.04621.09746-.0737.14437A1.56653,1.56653,0,0,1,1.91,2.92651a1.10183,1.10183,0,0,1-.10575.1231l-.00291.00615a.1037.1037,0,0,0-.00664.10737.40956.40956,0,0,0,.09493.112c.03476.03151.07219.05989.10661.09179a1.063,1.063,0,0,1,.1236.15574.27343.27343,0,0,1,.07448.17081c-.001.01118-.01931.0118-.02179.00119a.42755.42755,0,0,0-.0938-.157.7467.7467,0,0,0-.14127-.1337.62549.62549,0,0,1-.21795-.22279.18209.18209,0,0,1-.01277-.04075l-.01659.01415c-.04116.03469-.08385.06656-.127.09874a.26436.26436,0,0,0-.07827.07991.12932.12932,0,0,0-.00854.07169.66425.66425,0,0,1-.00272.08806c-.00554.05687-.01137.11411-.01934.1707a.65211.65211,0,0,1-.04453.16207c-.0087.02076-.01784.04172-.02532.06294-.00678.01922-.00743.03871-.01322.05785a.0201.0201,0,0,1-.03281.01061C1.30823,3.93191,1.31561,3.87657,1.32067,3.84135Z"/><path d="M1.29087,3.16068c.03887-.04589.08315-.08755.11759-.13712a.25683.25683,0,0,0,.04843-.15031,1.55388,1.55388,0,0,0-.02177-.18279c-.00867-.06451-.01166-.12959-.01564-.19451a1.34309,1.34309,0,0,1-.00489-.16756A.6818.6818,0,0,1,1.49748,2.032a.6349.6349,0,0,1,.09826-.13347,1.23353,1.23353,0,0,1,.14443-.10746c.00546-.00406.01306.0047.00779.00926a.51979.51979,0,0,0-.09445.12086.88605.88605,0,0,0-.06951.12362.73123.73123,0,0,0-.05826.25535c-.00526.11553.00993.2309.01354.3463a.709.709,0,0,1-.03776.32655.93577.93577,0,0,1-.09733.153c-.01942.02658-.04175.05054-.06257.076-.02019.02467-.01637.04061-.00733.0698a.03687.03687,0,0,1-.05954.03826C1.22618,3.26188,1.253,3.20542,1.29087,3.16068Z"/><path d="M1.22447,3.63373a1.23772,1.23772,0,0,0,.024-.1374.41346.41346,0,0,1,.02922-.13562.00833.00833,0,0,1,.01517.00122.35976.35976,0,0,1,.00562.13991c-.00384.048-.00889.09615-.01676.1437-.00746.04514-.01948.08929-.02364.13495a.18061.18061,0,0,1-.04186.12209A.01236.01236,0,0,1,1.195,3.895.93563.93563,0,0,1,1.22447,3.63373Z"/><path d="M2.713,2.32413a.47663.47663,0,0,1,.06685-.11345.00824.00824,0,0,1,.01466.00749.50675.50675,0,0,0-.03478.115c-.00726.03827-.00492.07739-.01355.11539a.01846.01846,0,0,1-.03533.00193A.171.171,0,0,1,2.713,2.32413Z"/><path d="M2.61168,2.24637a.22438.22438,0,0,1,.0852-.08037c.005-.00334.01181.00416.007.00833A.2109.2109,0,0,0,2.654,2.269c-.01024.03192-.01473.06544-.0264.09688a.01847.01847,0,0,1-.0337-.0027A.16059.16059,0,0,1,2.61168,2.24637Z"/><path d="M2.5033,2.19779A.183.183,0,0,1,2.52272,2.171l.02182-.02325a.011.011,0,0,1,.01787.01242l-.01216.02995a.118.118,0,0,1-.01667.02868C2.52118,2.2355,2.49211,2.21554,2.5033,2.19779Z"/><path d="M2.0827,2.101a.01262.01262,0,0,1,.02415-.00132.85346.85346,0,0,1,.05778.16376.26067.26067,0,0,1-.00317.17957.03374.03374,0,0,1-.06123-.0049.27624.27624,0,0,1-.01656-.086L2.073,2.26767A.41806.41806,0,0,1,2.0827,2.101Z"/><path d="M1.08811,4.10073c.00085-.00672.00936-.00666.01278-.00236a.29393.29393,0,0,0,.03608.042c.02031.01763.03654.01171.06013.01787.0182.00475.03488.01359.05258.01968a.24163.24163,0,0,0,.01318-.03311.53527.53527,0,0,0,.00981-.05339A.20819.20819,0,0,1,1.32024,3.999a.018.018,0,0,1,.031.011c-.00045.01724-.0015.03429-.0034.0514-.00227.02057.00037.04078-.00068.06139a.18357.18357,0,0,1-.03461.1059.03315.03315,0,0,1-.00691.01433c-.017.02069-.05094.01432-.07344.00813a.13923.13923,0,0,1-.07788-.04084c-.00641-.00909-.01074-.0194-.01774-.02833-.0086-.011-.02041-.01911-.02914-.03007A.07151.07151,0,0,1,1.08811,4.10073Z"/><path d="M2.09546,3.92231c.01193-.05555.06612-.085.09431-.13085l.00171.0006a.5979.5979,0,0,1-.04072.11739c-.01115.03932.02783.06142.05482.0828.03321.02629-.01135.07483-.0445.04858C2.123,4.01071,2.08393,3.976,2.09546,3.92231Z"/><path d="M2.627,3.0485c.01805-.03561.04836-.06426.06352-.10133.00244-.006.013-.00238.01084.00381a.9931.9931,0,0,0-.03464.10028.13965.13965,0,0,0,.0224.09322c.01581.03217.0351.0625.05.09516.01863.04093.03488.0831.05029.12534.01441.03948.02492.08083.04194.11927a.33954.33954,0,0,1,.03686.10959.18449.18449,0,0,1-.02484.09621.59573.59573,0,0,0-.04848.08482c-.02321.06733-.04139.16956-.125.18807-.027.006-.05888-.02809-.03284-.0511a.18689.18689,0,0,0,.06-.06752c.01253-.02915.017-.06115.02675-.09121a.25374.25374,0,0,1,.05491-.08738.16163.16163,0,0,0,.02766-.03489.0624.0624,0,0,0-.00381-.04819c-.01241-.03537-.03344-.06722-.04634-.1025-.01453-.03973-.02714-.08-.04256-.11948A1.13741,1.13741,0,0,0,2.666,3.24788a.66076.66076,0,0,1-.04744-.09533.14077.14077,0,0,1-.01018-.05432A.15908.15908,0,0,1,2.627,3.0485Z"/><path d="M2.387,3.03347a.36409.36409,0,0,0,.021.119.592.592,0,0,0,.05479.10317c.03831.05989.08174.11629.11848.17722a.73193.73193,0,0,1,.04663.09046.4335.4335,0,0,1,.01935.05069c.00161.00559.00229.03027.00467.04131L2.65039,3.616l-.0175.0097c-.016.00962-.03219.01874-.04854.02773a.10655.10655,0,0,0-.063.07319.1586.1586,0,0,0,.012.09343.40761.40761,0,0,0,.0496.08059c.00422.00617.014-.00009.00976-.00624a.21209.21209,0,0,1-.02082-.05241.29343.29343,0,0,1-.01465-.05611.09549.09549,0,0,1,.00251-.05433.10773.10773,0,0,1,.04566-.03165.22055.22055,0,0,0,.07714-.056c.016-.019.00654-.04523.00452-.06761a.42157.42157,0,0,0-.066-.1882c-.03637-.0586-.07891-.11306-.11566-.1714a.56159.56159,0,0,1-.08436-.18514A.01709.01709,0,0,0,2.387,3.03347Z"/><path d="M4.28622,1.33023a.11327.11327,0,0,0-.0224-.038.15687.15687,0,0,1-.03094-.03768c-.00183-.00449-.00782-.00226-.00774.00207a.46717.46717,0,0,0,.00113.07888.08037.08037,0,0,1,.00353.03264.11115.11115,0,0,1-.01824.03337.22875.22875,0,0,0-.01666.03639.071.071,0,0,1-.02413.03161c-.01222.0106-.02383.02127-.03492.03249a.09483.09483,0,0,1-.06677-.00469.14972.14972,0,0,0-.03424-.01571c-.011-.00227-.01544-.00011-.02346-.00914-.01318-.01484-.02315-.03274-.03587-.04809a.15185.15185,0,0,0-.11432-.05885A.092.092,0,0,1,3.803,1.34605c-.01628-.01754-.01564-.04523-.02534-.06618L3.77172,1.281a.43046.43046,0,0,0,.0119.07749.08225.08225,0,0,0,.03664.06766c.02877.01641.05873.00122.08876.00609a.22877.22877,0,0,1,.04305.0064.04882.04882,0,0,1,.02157.01718l.025.03193.00731.012a.09705.09705,0,0,0,.00513.01645.0941.0941,0,0,0,.07005.03768c.05691.0067.18535-.118.19555-.13516A.1063.1063,0,0,0,4.28622,1.33023Z"/><path d="M4.02746,1.31164c.00678-.01325.02725-.02669.042-.01652.02513.01734.02108.04218.01352.06788-.0055.01873.001.0347-.011.05195l-.00764.00138A.04336.04336,0,0,1,4.046,1.39464a.20459.20459,0,0,0-.01514-.03391A.05575.05575,0,0,1,4.02746,1.31164Z"/><path d="M3.89194.67491a.22418.22418,0,0,1,.10853.00647.115.115,0,0,1,.02871.016A.44667.44667,0,0,1,4.07255.61785.19745.19745,0,0,1,4.10729.57819a.19993.19993,0,0,1,.04829-.024l.00128.002c-.02619.02576-.02264.0759-.02956.10942a.15472.15472,0,0,1-.0489.08949.21313.21313,0,0,0,.04467.05783.53027.53027,0,0,1,.06646.05124c.02019.02231.04185.03646.05042.06711a.13313.13313,0,0,1-.01134.08027.21446.21446,0,0,1-.01493.03987.14016.14016,0,0,0-.02205.04326.30616.30616,0,0,0,.01648.115l-.00248.00159a.14241.14241,0,0,1-.03683-.07092.26734.26734,0,0,1-.00532-.0834.09607.09607,0,0,1,.0126-.0373c.00626-.01107.021-.02421.01815-.03831A.158.158,0,0,0,4.18457.964l-.007-.02015A.22667.22667,0,0,1,4.168.90566C4.1627.87759,4.13061.86593,4.109.85193A.40742.40742,0,0,1,4.04592.79542.41964.41964,0,0,0,3.98967.74075.34152.34152,0,0,0,3.88941.7093.01747.01747,0,0,1,3.89194.67491Z"/><path d="M3.73892.585c.0044-.01137.01929-.009.02536-.00123a.15075.15075,0,0,1,.02885.04536.54277.54277,0,0,1,.01581.05222c.00484.01992.01743.06694-.014.07247-.03079.00541-.05084-.04341-.05822-.0656A.20889.20889,0,0,1,3.726.63378.11638.11638,0,0,1,3.73892.585Z"/><path d="M2.03952,1.72411a2.00773,2.00773,0,0,1,.46851.04646c.0771.01338.15435.033.23246.03924a.60752.60752,0,0,0,.224-.0366.64088.64088,0,0,0,.31677-.20041l.0053-.00666a.48118.48118,0,0,1-.0461.02448.632.632,0,0,1-.1863.053,1.33845,1.33845,0,0,1-.23079-.01374c-.01015-.00049-.01521-.0162-.00355-.019a1.68957,1.68957,0,0,1,.21335-.0222.56945.56945,0,0,0,.17451-.04894.36817.36817,0,0,0,.1376-.11141c.01077-.01354.02023-.02788.02966-.04225L3.36,1.39557a.50224.50224,0,0,1-.1681.07062c-.02916.0054-.05858.009-.088.013l-.0464.00685a.472.472,0,0,0-.0563.00669c-.00852.00226-.01571-.01021-.007-.01477a.62312.62312,0,0,1,.0762-.03865c.02848-.01033.0573-.01972.08518-.03163.0513-.02192.10488-.04129.15394-.068a.30255.30255,0,0,0,.12079-.10511c.01351-.0219.02527-.04509.03738-.06778l.004-.00779.00412-.01093a.3992.3992,0,0,1-.219.10374c-.015.00163-.01786-.01746-.00817-.02527a.9492.9492,0,0,1,.1007-.07316,1.00493,1.00493,0,0,0,.10742-.07188.40946.40946,0,0,0,.0771-.08132A.25166.25166,0,0,1,3.56335.96646L3.566.96215q-.02407.017-.0498.03213a.66072.66072,0,0,1-.071.0372c-.02592.01118-.05337.01779-.07872.03047a.90219.90219,0,0,0-.14695.08618c-.006.00458-.01407-.00493-.00857-.01019a1.55384,1.55384,0,0,1,.11325-.1095A.84543.84543,0,0,1,3.46351.93649,1.57462,1.57462,0,0,0,3.60537.85962c.02092-.01331.042-.027.06178-.042C3.68743.80228,3.70378.77883,3.72861.771A.01046.01046,0,0,1,3.742.783a.14011.14011,0,0,1-.04128.05521L3.69379.8457a.71358.71358,0,0,0-.0714.14267c-.02482.07426-.04333.151-.06673.22583a1.29377,1.29377,0,0,1-.1825.39932.55695.55695,0,0,1-.13708.13081.85487.85487,0,0,1-.18864.08766.5569.5569,0,0,1-.22425.03548,1.76357,1.76357,0,0,1-.239-.04841c-.0886-.01915-.17759-.03659-.26657-.05388a.95661.95661,0,0,0-.14321-.01625.82.82,0,0,1-.136-.01094A.007.007,0,0,1,2.03952,1.72411Z"/><g><path d="M.469,1.31037a.35.35,0,0,0,.28228.08,2.0631,2.0631,0,0,0,.298-.0867.51289.51289,0,0,1,.3087-.02141.5147.5147,0,0,1,.26633.1982c.03769.0512.06641.10978.10792.15585a1.467,1.467,0,0,0,.12661.11678l-.00293.00521a.14221.14221,0,0,1-.06125-.01811c-.02589-.01358-.051-.02494-.07739-.03817a.3932.3932,0,0,1-.12276-.10751,1.61144,1.61144,0,0,0-.10641-.12621A.3712.3712,0,0,0,1.36,1.38341a.43308.43308,0,0,0-.27978-.01508,1.74748,1.74748,0,0,1-.29975.06218.37138.37138,0,0,1-.32785-.09609C.43782,1.32083.4529,1.29927.469,1.31037Z"/><path d="M.57354,1.47629A1.47961,1.47961,0,0,0,.789,1.50124a.67627.67627,0,0,0,.1893-.02646.7998.7998,0,0,1,.244-.03219.33064.33064,0,0,1,.22423.13,1.09,1.09,0,0,0,.10442.1213,1.03093,1.03093,0,0,0,.11308.08979l-.00177.00248c-.03745-.01891-.08108-.02934-.11755-.04963a.37826.37826,0,0,1-.09616-.08483.32919.32919,0,0,0-.20012-.127c-.15191-.01637-.291.03277-.44606.02039a.67531.67531,0,0,1-.23385-.04755C.5586,1.493.56255,1.4742.57354,1.47629Z"/><path d="M.87662,1.59011A.54455.54455,0,0,1,.97315,1.571a.61179.61179,0,0,1,.12323-.00471.4183.4183,0,0,1,.20138.063c.11746.08331.12979.13855.28264.17549.00406.001.00313.00464-.0005.00545a.29929.29929,0,0,1-.19833-.02277.69255.69255,0,0,1-.11551-.07647c-.019-.01368-.03983-.02636-.0655-.04169a.42961.42961,0,0,0-.092-.0457A.47485.47485,0,0,0,.97837,1.6093a.54743.54743,0,0,1-.09976-.00259C.86735,1.605.86592,1.59352.87662,1.59011Z"/></g><path d="M3.00519,4.3118a.08541.08541,0,0,1,.0402-.05378.29408.29408,0,0,1,.06311-.02751c.0196-.007.037-.01673.05583-.025l.00636.00557c-.01554.04545-.141.0671-.09751.1256a.18072.18072,0,0,0,.04328.0403l.02115.01168.00837.00315c.00493-.00781.01749-.01522.02368-.02244l.01951-.02261c.00708-.00744.02183-.02565.034-.01944.021.01065-.01292.06215-.02015.0721a.10324.10324,0,0,1-.05383.04457c-.045.01192-.0973-.03572-.12336-.06944A.083.083,0,0,1,3.00519,4.3118Z"/></g></g></svg>