<svg xmlns="http://www.w3.org/2000/svg" xmlns:xlink="http://www.w3.org/1999/xlink" version="1.1" x="0px" y="0px" viewBox="0 0 100 125" enable-background="new 0 0 100 100" xml:space="preserve"><g><path d="M27.062,30.058l-0.614,2.663c-0.048,0.211-0.229,0.365-0.444,0.382c-0.226,0.013-0.418-0.11-0.497-0.311l-0.771-1.949   l-0.728,2.593c-0.049,0.174-0.189,0.307-0.366,0.348c-0.177,0.042-0.36-0.018-0.481-0.154c-0.103-0.115-2.498-2.866-2.155-6.041   c0.187-1.716,1.133-3.21,2.816-4.439l5.595-4.081c0.118-0.086,0.267-0.116,0.41-0.081c0.142,0.035,0.262,0.132,0.325,0.263   c0.093,0.19,1.747,3.612,2.301,6.659L27.062,30.058z M31.529,26.329c-0.37-2.282-1.509-4.979-2.017-6.108l-5.108,3.726   c-1.445,1.057-2.258,2.316-2.414,3.742c-0.2,1.822,0.705,3.55,1.338,4.509l0.852-3.034c0.057-0.204,0.237-0.349,0.45-0.36   c0.212-0.012,0.407,0.115,0.484,0.312l0.728,1.835l0.688-1.983C26.579,28.749,31.661,27.141,31.529,26.329z"/></g><path d="M11.887,45.003c0,0,0-5.255,4.653-10.984c3.577-4.403,8.213-6.057,13.038-6.315c0,0-1.995,2.879-0.911,7.129  c0.176,0.69,2.066-2.637,2.417-2.917c0.417-0.333-0.175,2.982,0.667,2.417c1.139-0.764,1.215-2.711,2.333-3.083  c0.197-0.065-0.973,5.913,0,5.583c5.667-1.917,5.322-7.315,5.587-7.166c3.07,1.725,4.927,3.994,4.927,3.994  c0,0,2.387,1.431,6.321,2.39c3.944,0.954,7.169-2.748,16.357-5.969c9.194-3.228,15.756,0,20.411,3.579  c4.659,3.582,6.81,12.296,6.45,18.623c-0.357,6.33-4.896,13.25-4.896,13.25s-0.121,7.999-4.891,12.773  c-2.942,2.941-5.492,3.703-6.688,3.94c-1.192,0.236-0.601-2.863-0.601-2.863s-3.812-0.836-3.099-1.077  c0.716-0.239,4.535-4.535,5.371-6.683c0.835-2.151,1.189-7.043,0.478-8.118c-0.719-1.074-1.907-0.479-1.907-0.479  s-3.107,1.91-8.838,3.581c-5.729,1.675-12.413,0.716-12.413,0.716s0.117-2.742-0.237,2.986c-0.359,5.729-2.99,8.837-4.538,10.743  c-1.554,1.909-4.176,2.271-4.176,2.271l-0.597-2.508c0,0-4.299-0.121-2.87-0.954c1.437-0.838,3.705-5.851,4.182-8.953  c0.477-3.104-0.714-5.375-0.714-5.375s-3.104-0.713-9.072-3.818c-5.976-3.104-7.758-6.446-7.758-6.446s-3.227,4.182-11.583,3.105  c-1.987-0.256-5.581-1.728-4.537-2.271c2.984-1.552,3.341-2.745,3.341-2.745s-2.831,1.122-5.849,1.077  c-0.714-0.013,0.922-1.103-0.328-3.852c-2.722-5.987-5.764-4.508-5.764-4.508L11.887,45.003z M22.808,45.121  c-0.756,0-1.378,0.697-1.378,1.551c0,0.859,0.622,1.554,1.378,1.554c0.763,0,1.377-0.695,1.377-1.554  C24.185,45.818,23.571,45.121,22.808,45.121z M28.48,46.555c-1.323,0-2.39,1.068-2.39,2.388c0,1.318,1.067,2.387,2.39,2.387  c1.317,0,2.391-1.069,2.391-2.387C30.872,47.624,29.797,46.555,28.48,46.555z M78.264,40.523c-1.485,0-2.689,0.803-2.689,1.792  s1.204,1.791,2.689,1.791c1.476,0,2.68-0.802,2.68-1.791S79.739,40.523,78.264,40.523z M68.232,37.838  c-1.086,0-1.974,0.522-1.974,1.167c0,0.642,0.888,1.164,1.974,1.164c1.085,0,1.969-0.521,1.969-1.164  C70.201,38.36,69.317,37.838,68.232,37.838z M79.603,34.259c-0.739,0-1.339,0.36-1.339,0.804c0,0.447,0.6,0.807,1.339,0.807  c0.742,0,1.341-0.36,1.341-0.807C80.943,34.619,80.345,34.259,79.603,34.259z M77.452,50.374c-0.74,0-1.342,0.52-1.342,1.164  c0,0.642,0.602,1.163,1.342,1.163c0.742,0,1.347-0.521,1.347-1.163C78.799,50.894,78.194,50.374,77.452,50.374z M88.02,40.345  c-0.447,0-0.81,0.442-0.81,0.987s0.362,0.984,0.81,0.984c0.444,0,0.805-0.439,0.805-0.984S88.464,40.345,88.02,40.345z"/><path d="M39.701,58.014c0,0,1.908,11.104-2.031,14.446c-3.938,3.341-3.222,3.224-3.222,3.224l3.222,0.477  c0,0-1.218,2.87-0.118,2.628c1.077-0.239,5.388-2.3,7.044-5.612c2.387-4.773,3.342-10.626,3.342-10.626l-8.238-5.012V58.014z"/><path d="M69.304,63.027c0,0,0.598,4.06-0.594,6.566c-1.192,2.505-4.896,5.492-4.896,5.492c1.435,0.837,3.462,0.598,3.939,0.598  c0.479,0,0.717,3.104,0.717,3.104s2.5-0.7,4.779-3.465c3.336-4.058,3.461-7.04,3.933-14.086  C77.662,54.195,69.304,63.027,69.304,63.027z"/><g><path d="M88.169,36.646c-0.256,0-0.498-0.137-0.637-0.38c-0.33-0.622-1.932-3.806-0.922-5.419c0.247-0.388,0.723-0.834,1.65-0.884   c0.089-1.119,0.708-1.863,1.707-2.021c0.566-0.09,1.271-0.138,1.724,0.29c0.207,0.197,0.292,0.432,0.324,0.645   c0.535-0.252,0.76-0.652,0.771-0.677c0.179-0.345,0.613-0.479,0.961-0.302c0.348,0.18,0.486,0.602,0.313,0.951   c-0.026,0.055-0.653,1.274-2.173,1.579c-0.159,0.032-0.648,0.129-1.021-0.205c-0.31-0.288-0.307-0.662-0.284-0.909   c-0.093,0.005-0.218,0.015-0.39,0.045c-0.149,0.02-0.474,0.072-0.507,0.77c1.082,0.29,1.94,0.929,2.399,1.818   c0.361,0.719,0.376,1.461,0.029,1.979c-0.275,0.404-0.73,0.619-1.259,0.572c-1.188-0.102-2.116-1.683-2.461-3.104   c-0.435,0.005-0.533,0.163-0.569,0.215c-0.423,0.674,0.332,2.78,0.973,3.989c0.187,0.347,0.054,0.782-0.293,0.966   C88.396,36.619,88.284,36.646,88.169,36.646z M90.032,31.806c0.285,0.665,0.68,1.167,0.899,1.251c0-0.112-0.034-0.322-0.197-0.577   C90.637,32.317,90.423,32.041,90.032,31.806z"/></g><path d="M11.225,54.821c-0.097,0-0.197-0.006-0.305-0.018c-1.801-0.198-5.495-3.278-5.616-6.801  c-0.076-2.295,0.901-2.796,1.49-2.891c0.068-0.012,0.143-0.018,0.219-0.018c1.509,0,3.999,2.552,4.632,3.854  c0.686,1.404,1.718,3.946,0.938,5.192C12.389,54.452,11.995,54.821,11.225,54.821z M7.012,46.083  c-0.518,0.078-0.758,0.764-0.721,1.886c0.105,3.034,3.418,5.706,4.738,5.852c0.46,0.051,0.641-0.085,0.715-0.203  c0.362-0.58-0.035-2.282-0.989-4.237C10.16,48.157,7.935,46.083,7.012,46.083z"/><path d="M10.213,50.998c0,0.547-0.158,0.986-0.357,0.986c-0.2,0-0.355-0.439-0.355-0.986c0-0.539,0.155-0.984,0.355-0.984  C10.055,50.014,10.213,50.459,10.213,50.998z"/><path d="M7.705,48.136c-0.197,0-0.354,0.439-0.354,0.984c0,0.545,0.158,0.99,0.354,0.99c0.2,0,0.363-0.445,0.363-0.99  C8.068,48.575,7.905,48.136,7.705,48.136z"/><path d="M33.509,37.505c-0.112,0-0.222-0.038-0.312-0.11c-0.124-0.101-0.191-0.255-0.181-0.415l0.245-3.892l-1.471,2.306  c-0.116,0.182-0.337,0.269-0.546,0.211c-0.208-0.057-0.356-0.243-0.363-0.459l-0.073-2.097l-1.555,2.2  c-0.104,0.147-0.277,0.23-0.46,0.206c-0.18-0.021-0.334-0.139-0.402-0.306c-0.058-0.144-1.396-3.539-0.01-6.414  c0.75-1.554,2.143-2.643,4.14-3.236l6.635-1.978c0.139-0.043,0.292-0.02,0.414,0.062c0.122,0.081,0.202,0.211,0.218,0.356  c0.032,0.282,0.765,6.927-0.908,9.719c-1.691,2.817-5.093,3.791-5.238,3.831C33.598,37.5,33.553,37.505,33.509,37.505z   M33.874,30.712c0.051,0,0.104,0.008,0.154,0.024c0.214,0.07,0.353,0.276,0.34,0.501l-0.319,5.057  c1.014-0.411,2.921-1.378,3.983-3.146c1.234-2.059,0.967-6.837,0.829-8.509l-6.059,1.806c-1.719,0.511-2.908,1.426-3.531,2.718  c-0.797,1.655-0.523,3.582-0.245,4.694l1.821-2.577c0.123-0.173,0.342-0.248,0.544-0.188c0.204,0.061,0.345,0.244,0.353,0.456  l0.069,1.973l1.646-2.581C33.549,30.795,33.708,30.712,33.874,30.712z"/></svg>