<svg xmlns="http://www.w3.org/2000/svg" xmlns:xlink="http://www.w3.org/1999/xlink" version="1.1" x="0px" y="0px" viewBox="0 0 100 125" enable-background="new 0 0 100 100" xml:space="preserve"><g><ellipse fill="none" cx="52.764" cy="35.416" rx="0.284" ry="0.665"/><path fill="none" d="M45.18,42.975c1.689,0.023,2.763,0.189,2.808,0.196c0.098,0.015,0.165,0.108,0.15,0.206   c-0.015,0.098-0.107,0.166-0.206,0.15c-0.011-0.001-1.099-0.169-2.764-0.192c-0.233-0.003-0.484-0.003-0.752,0.001   c0.019,0.87,0.575,1.696,1.574,2.33c0.972,0.617,2.243,0.979,3.612,1.035c-0.351-2.112-0.092-4.373,0.021-5.169   c-0.724-0.175-1.31-0.86-1.425-1.501c-0.537,0.106-1.043,0.264-1.499,0.466c0.889,0.355,1.333,0.626,1.355,0.64   c0.085,0.052,0.111,0.163,0.06,0.248c-0.034,0.055-0.093,0.085-0.154,0.085c-0.032,0-0.064-0.008-0.094-0.026   c-0.006-0.004-0.542-0.33-1.606-0.73c-0.28,0.154-0.535,0.326-0.76,0.514c-0.127,0.107-0.243,0.217-0.349,0.331   c0.017,0.003,0.035,0.006,0.052,0.009c1.652,0.283,2.8,0.651,2.812,0.655c0.095,0.031,0.146,0.132,0.116,0.227   c-0.025,0.076-0.095,0.124-0.171,0.124c-0.018,0-0.037-0.002-0.056-0.009c-0.011-0.003-1.139-0.365-2.768-0.643   c-0.08-0.014-0.163-0.027-0.248-0.041c-0.245,0.344-0.398,0.712-0.452,1.095C44.701,42.972,44.95,42.972,45.18,42.975z"/><path fill="none" d="M53.729,40.734c-1.028,0.392-1.548,0.707-1.553,0.71c-0.03,0.018-0.063,0.026-0.095,0.026   c-0.06,0-0.119-0.03-0.154-0.086c-0.052-0.084-0.025-0.195,0.059-0.247c0.022-0.013,0.451-0.275,1.309-0.621   c-0.468-0.212-0.99-0.377-1.544-0.486c-0.119,0.664-0.743,1.375-1.502,1.518c-0.101,0.697-0.387,3.057-0.017,5.158   c0.501-0.014,0.99-0.069,1.456-0.163c0.002,0,0.005-0.001,0.007-0.001c0.848-0.17,1.623-0.467,2.267-0.876   c0.999-0.635,1.556-1.461,1.574-2.331c-0.235-0.003-0.458-0.002-0.665,0c-1.665,0.023-2.754,0.191-2.765,0.192   c-0.098,0.015-0.191-0.052-0.206-0.15c-0.015-0.098,0.052-0.191,0.15-0.206c0.045-0.007,1.12-0.174,2.808-0.196   c0.205-0.003,0.424-0.003,0.656-0.001c-0.053-0.377-0.203-0.741-0.442-1.082c-0.06,0.01-0.119,0.02-0.176,0.029   c-1.627,0.279-2.751,0.639-2.762,0.642c-0.019,0.006-0.037,0.009-0.055,0.009c-0.076,0-0.147-0.048-0.172-0.124   c-0.031-0.095,0.021-0.196,0.116-0.227c0.011-0.004,1.15-0.368,2.789-0.651c-0.109-0.119-0.23-0.234-0.363-0.345   C54.238,41.046,53.995,40.882,53.729,40.734z"/><path fill="none" d="M49.978,47.331C49.977,47.331,49.977,47.331,49.978,47.331L49.978,47.331L49.978,47.331   c-0.507,0-1.005-0.039-1.484-0.116c-0.013,0.453,0,1.275,0.207,1.953c0.425,0.083,1.601,0.269,2.644,0.031   c-0.02-0.415-0.045-1.254,0.037-1.973C50.926,47.295,50.456,47.331,49.978,47.331z"/><ellipse fill="none" cx="47.511" cy="35.416" rx="0.284" ry="0.665"/><path fill="none" d="M67.586,90.555c-0.858-0.813-2.086-1.225-3.65-1.225c-0.239,0-0.433-0.194-0.433-0.433   c0-0.239,0.194-0.432,0.433-0.432c2.267,0,3.583,0.818,4.288,1.504c0.086,0.084,0.165,0.167,0.237,0.25   c-0.068-0.212-0.174-0.434-0.33-0.663c-0.867-1.285-2.362-2.001-4.445-2.129c-1.317-0.082-2.469,0.11-2.848,0.184   c-0.059,0.068-0.118,0.137-0.178,0.204c-0.085,0.095-0.203,0.144-0.322,0.144c-0.103,0-0.206-0.037-0.289-0.111   c-0.177-0.159-0.192-0.433-0.032-0.61c3.417-3.8,5.481-9.78,5.811-16.839c0.298-6.369-0.921-12.831-3.267-17.378   c-0.559,0.132-1.137,0.2-1.726,0.2c-0.239,0-0.433-0.194-0.433-0.432c0-0.239,0.194-0.433,0.433-0.433   c3.617,0,6.559-2.926,6.559-6.523c0-3.597-2.942-6.523-6.559-6.523c-0.239,0-0.433-0.194-0.433-0.432   c0-0.239,0.194-0.432,0.433-0.432c0.454,0,0.902,0.041,1.339,0.12c-0.629-2.423-2.903-9.393-8.619-11.433   c-0.225-0.08-0.342-0.328-0.262-0.553c0.044-0.123,0.138-0.213,0.25-0.257c0.347-2.577,1.094-5.125,2.225-7.581   c0.949-2.062,2.169-4.063,3.624-5.948c1.433-1.855,2.82-3.235,3.742-4.073c0.008-0.009,0.017-0.017,0.027-0.024   c0.657-0.596,1.07-0.912,1.08-0.919c0.119-0.09,0.289-0.067,0.378,0.052c0.09,0.119,0.066,0.289-0.052,0.378   c-0.011,0.008-0.374,0.286-0.958,0.811c0.044,0.536,0.131,2.513-0.641,5.426c-0.522,1.967-1.331,3.954-2.406,5.906   c-1.281,2.327-2.946,4.611-4.95,6.792c0.119,0.069,0.236,0.142,0.353,0.217c6.141-4.026,8.406-9.708,9.224-13.773   c0.701-3.49,0.49-6.405,0.364-7.504c-5.114,1.41-8.856,5.121-11.125,11.038c-1.756,4.578-1.916,8.81-1.918,8.853   c0,0.002,0,0.004,0,0.006c0.133,0.057,0.26,0.121,0.379,0.192c0.145,0.087,0.192,0.275,0.105,0.42   c-0.057,0.096-0.159,0.149-0.263,0.149c-0.053,0-0.108-0.015-0.157-0.044c-1.088-0.653-3.3-0.661-4.733-0.017   c-0.155,0.07-0.336,0.001-0.405-0.154c-0.069-0.154-0.001-0.335,0.153-0.405c0.137-0.061,0.282-0.118,0.436-0.17   c-0.015-0.339-0.23-4.471-1.926-8.907c-2.27-5.938-6.009-9.66-11.115-11.069c-0.125,1.103-0.338,4.038,0.37,7.534   c0.815,4.023,3.052,9.635,9.075,13.648c0.135-0.074,0.272-0.146,0.41-0.215c-1.966-2.154-3.601-4.405-4.865-6.7   c-1.075-1.951-1.884-3.939-2.406-5.906c-0.773-2.911-0.686-4.888-0.641-5.425c-0.585-0.526-0.949-0.804-0.958-0.811   c-0.119-0.09-0.143-0.26-0.052-0.378c0.09-0.119,0.26-0.143,0.378-0.053c0.01,0.008,0.424,0.324,1.082,0.921   c0.009,0.007,0.016,0.014,0.024,0.022c0.921,0.838,2.309,2.218,3.743,4.074c1.456,1.885,2.675,3.886,3.625,5.948   c1.142,2.48,1.893,5.056,2.235,7.66c0.075,0.054,0.135,0.132,0.163,0.227c0.069,0.228-0.06,0.47-0.289,0.538   c-0.778,0.235-1.515,0.553-2.213,0.952c-0.025,0.019-0.053,0.034-0.081,0.047c-2.117,1.234-3.859,3.22-5.196,5.934   c-0.937,1.901-1.415,3.671-1.622,4.583c0.454-0.085,0.92-0.13,1.393-0.13c0.239,0,0.432,0.194,0.432,0.432   c0,0.239-0.194,0.432-0.432,0.432c-3.617,0-6.559,2.926-6.559,6.523c0,3.597,2.942,6.523,6.559,6.523   c0.239,0,0.432,0.194,0.432,0.433c0,0.239-0.194,0.432-0.432,0.432c-0.589,0-1.168-0.068-1.727-0.2   c-2.345,4.547-3.564,11.009-3.266,17.378c0.33,7.059,2.394,13.039,5.811,16.839c0.159,0.178,0.146,0.451-0.033,0.61   c-0.082,0.074-0.186,0.111-0.289,0.111c-0.119,0-0.236-0.049-0.322-0.144c-0.06-0.067-0.119-0.136-0.178-0.204   c-0.378-0.074-1.53-0.266-2.847-0.184c-2.083,0.129-3.579,0.845-4.446,2.129c-0.155,0.23-0.262,0.452-0.33,0.664   c0.073-0.083,0.152-0.167,0.238-0.251c0.704-0.686,2.021-1.504,4.288-1.504c0.239,0,0.432,0.194,0.432,0.432   c0,0.239-0.194,0.433-0.432,0.433c-1.564,0-2.792,0.412-3.65,1.225c-0.461,0.437-0.686,0.879-0.776,1.092   c0.192,0.404,0.491,0.728,0.743,0.95c0.147,0.13,0.309,0.252,0.482,0.367c0.121-0.32,0.324-0.728,0.663-1.128   c0.634-0.75,1.881-1.619,4.218-1.498c0.239,0.013,0.422,0.216,0.409,0.455c-0.012,0.239-0.215,0.422-0.454,0.41   c-1.571-0.081-2.744,0.308-3.486,1.16c-0.328,0.377-0.498,0.768-0.583,1.026c1.18,0.544,2.701,0.815,4.265,0.73   c1.809-0.098,4.494-0.69,7.174-2.915c-0.755-0.286-1.196-0.529-1.23-0.548c-0.208-0.116-0.284-0.379-0.167-0.588   c0.116-0.209,0.379-0.284,0.588-0.168c0.015,0.008,1.473,0.805,3.675,1.198c2.017,0.359,5.093,0.441,8.296-1.204   c0.212-0.109,0.474-0.026,0.583,0.187c0.109,0.212,0.026,0.473-0.187,0.582c-0.501,0.257-1.013,0.482-1.534,0.674   c2.625,2.115,5.238,2.686,7.011,2.782c1.564,0.085,3.085-0.186,4.265-0.73c-0.085-0.258-0.255-0.649-0.583-1.026   c-0.741-0.852-1.914-1.242-3.486-1.16c-0.239,0.012-0.442-0.171-0.455-0.41c-0.012-0.239,0.171-0.442,0.41-0.455   c2.337-0.121,3.584,0.748,4.218,1.498c0.338,0.4,0.542,0.809,0.663,1.128c0.173-0.115,0.335-0.238,0.482-0.367   c0.253-0.222,0.552-0.545,0.743-0.95C68.271,91.434,68.046,90.991,67.586,90.555z M50.949,29.954   c0.509-0.561,1.093-0.855,1.734-0.874c0.023-0.001,0.046-0.001,0.068-0.001c1.113,0,1.978,0.829,2.015,0.864   c0.1,0.097,0.102,0.257,0.005,0.357c-0.098,0.1-0.257,0.103-0.357,0.006c-0.008-0.007-0.789-0.752-1.72-0.721   c-0.498,0.017-0.961,0.255-1.374,0.709c-0.05,0.055-0.119,0.083-0.187,0.083c-0.06,0-0.121-0.022-0.17-0.065   C50.863,30.216,50.856,30.056,50.949,29.954z M45.23,29.942c0.038-0.036,0.936-0.898,2.084-0.863   c0.642,0.02,1.225,0.314,1.734,0.874c0.094,0.103,0.087,0.262-0.017,0.356c-0.048,0.044-0.109,0.065-0.17,0.065   c-0.068,0-0.137-0.028-0.186-0.083c-0.413-0.454-0.876-0.693-1.374-0.709c-0.931-0.031-1.712,0.714-1.72,0.721   c-0.1,0.097-0.26,0.094-0.356-0.006C45.128,30.198,45.13,30.039,45.23,29.942z M45.099,32.418c0.543-0.787,1.278-1.221,2.065-1.221   c0.788,0,1.522,0.434,2.065,1.221c0.402,0.581,0.664,1.307,0.764,2.093c0.099-0.786,0.362-1.512,0.764-2.093   c0.543-0.787,1.278-1.221,2.065-1.221c0.789,0,1.522,0.434,2.066,1.221c0.521,0.754,0.808,1.752,0.808,2.809   c0,1.287-0.44,2.506-1.179,3.26c-0.111,0.113-0.294,0.116-0.407,0.004c-0.114-0.112-0.116-0.294-0.004-0.408   c0.635-0.648,1.013-1.716,1.013-2.856c0-0.941-0.25-1.822-0.706-2.482c-0.434-0.626-0.998-0.971-1.592-0.971   c-0.593,0-1.158,0.345-1.592,0.971c-0.455,0.659-0.706,1.54-0.706,2.482c0,1.168,0.394,2.251,1.053,2.896   c0.114,0.111,0.116,0.293,0.004,0.407c-0.057,0.057-0.131,0.087-0.206,0.087c-0.073,0-0.146-0.027-0.202-0.082   c-0.628-0.614-1.049-1.552-1.182-2.595c-0.133,1.043-0.553,1.981-1.181,2.595c-0.057,0.055-0.129,0.082-0.202,0.082   c-0.074,0-0.15-0.029-0.206-0.087c-0.111-0.114-0.109-0.297,0.005-0.407c0.659-0.645,1.053-1.728,1.053-2.896   c0-0.941-0.252-1.822-0.707-2.482c-0.433-0.626-0.998-0.971-1.591-0.971c-0.593,0-1.158,0.345-1.591,0.971   c-0.455,0.659-0.706,1.54-0.706,2.482c0,1.14,0.379,2.208,1.013,2.856c0.112,0.114,0.11,0.296-0.004,0.408   c-0.114,0.111-0.296,0.109-0.407-0.004c-0.738-0.754-1.179-1.973-1.179-3.26C44.29,34.17,44.577,33.172,45.099,32.418z    M53.615,35.633c0,1.015-0.439,1.838-0.982,1.838c-0.543,0-0.982-0.823-0.982-1.838c0-1.016,0.439-1.838,0.982-1.838   C53.176,33.795,53.615,34.617,53.615,35.633z M47.642,37.47c-0.543,0-0.982-0.823-0.982-1.838c0-1.016,0.439-1.838,0.982-1.838   c0.542,0,0.981,0.822,0.981,1.838C48.624,36.648,48.184,37.47,47.642,37.47z M38.79,44.028c-0.014,0.003-0.028,0.005-0.042,0.005   c-0.081,0-0.155-0.055-0.175-0.137c-0.024-0.097,0.036-0.194,0.132-0.218c1.873-0.458,3.667-0.634,5.105-0.686   c0.045-0.418,0.182-0.826,0.406-1.209c-1.42-0.186-3.226-0.29-4.983-0.022c-0.098,0.015-0.19-0.052-0.205-0.151   c-0.015-0.099,0.052-0.191,0.151-0.205c1.869-0.286,3.788-0.16,5.258,0.044c0.185-0.248,0.407-0.482,0.665-0.698   c0.126-0.106,0.261-0.206,0.401-0.302c-1.228-0.401-3.103-0.876-5.584-1.118c-0.099-0.009-0.172-0.098-0.162-0.197   c0.009-0.099,0.098-0.171,0.196-0.162c2.709,0.264,4.71,0.805,5.946,1.23c0.676-0.383,1.475-0.66,2.359-0.813   c0.09-0.225,0.252-0.429,0.478-0.595c0.334-0.246,0.774-0.381,1.238-0.381c0.464,0,0.904,0.135,1.238,0.381   c0.225,0.166,0.387,0.369,0.477,0.593c0.9,0.157,1.713,0.44,2.396,0.833c1.231-0.427,3.251-0.98,6-1.248   c0.099-0.009,0.188,0.063,0.197,0.162c0.009,0.1-0.063,0.188-0.162,0.197c-2.521,0.246-4.416,0.733-5.642,1.137   c0.13,0.09,0.254,0.183,0.372,0.281c0.262,0.22,0.488,0.458,0.675,0.711c1.481-0.21,3.434-0.346,5.337-0.055   c0.098,0.015,0.166,0.106,0.151,0.205c-0.015,0.098-0.106,0.166-0.205,0.151c-1.79-0.273-3.631-0.16-5.063,0.032   c0.219,0.379,0.355,0.782,0.399,1.195c1.452,0.049,3.281,0.223,5.192,0.689c0.096,0.024,0.156,0.122,0.132,0.218   c-0.02,0.082-0.095,0.137-0.175,0.137c-0.014,0-0.028-0.002-0.043-0.005c-1.871-0.458-3.664-0.63-5.09-0.679   c-0.023,1.084-0.682,2.091-1.864,2.841c-0.655,0.416-1.43,0.726-2.274,0.917c-0.142,0.934-0.046,2.29-0.045,2.305   c0.011,0.145-0.081,0.279-0.22,0.32c-0.515,0.155-1.064,0.206-1.566,0.206c-0.965,0-1.756-0.189-1.805-0.202   c-0.101-0.025-0.183-0.098-0.218-0.195c-0.315-0.861-0.316-1.947-0.295-2.448c-0.822-0.192-1.577-0.497-2.218-0.903   c-1.18-0.75-1.839-1.755-1.863-2.838C42.381,43.405,40.623,43.58,38.79,44.028z M59.923,55.856c-0.091,0.13-0.27,0.162-0.4,0.071   c-0.041-0.028-0.961-0.639-2.127,0.015c-0.044,0.025-0.093,0.037-0.14,0.037c-0.101,0-0.199-0.053-0.252-0.148   c-0.078-0.139-0.028-0.314,0.111-0.392c1.491-0.836,2.688-0.02,2.738,0.015C59.983,55.546,60.015,55.725,59.923,55.856z    M42.734,55.832c-0.077,0.139-0.253,0.188-0.392,0.111c-1.168-0.654-2.089-0.041-2.127-0.015c-0.05,0.035-0.108,0.052-0.165,0.052   c-0.09,0-0.18-0.044-0.236-0.124c-0.092-0.13-0.06-0.311,0.071-0.402c0.05-0.035,1.246-0.851,2.738-0.015   C42.763,55.517,42.812,55.693,42.734,55.832z M41.148,68.067c-2.92,0-5.296-2.255-5.296-5.027c0-0.893,0.25-1.769,0.722-2.535   c0.455-0.74,1.107-1.361,1.885-1.797c0.209-0.117,0.472-0.043,0.589,0.166c0.117,0.209,0.043,0.472-0.166,0.589   c-1.335,0.749-2.164,2.119-2.164,3.578c0,0.881,0.294,1.698,0.793,2.372c-0.221-1.351,0.218-2.249,0.242-2.298   c0.071-0.143,0.244-0.199,0.387-0.128c0.142,0.071,0.199,0.244,0.128,0.386c-0.004,0.007-0.168,0.348-0.223,0.909   c-0.064,0.648,0.035,1.311,0.295,1.975c0.635,0.49,1.417,0.817,2.274,0.915c-0.746-1.854-0.325-3.532-0.304-3.609   c0.04-0.154,0.197-0.247,0.351-0.206c0.154,0.04,0.247,0.197,0.207,0.351c-0.006,0.024-0.426,1.727,0.388,3.493   c0.961-0.021,1.848-0.331,2.565-0.841c-0.932-1.386-0.664-3.085-0.65-3.162c0.026-0.157,0.175-0.263,0.332-0.237   c0.157,0.026,0.263,0.175,0.237,0.332c-0.003,0.018-0.235,1.512,0.531,2.701c0.809-0.755,1.311-1.799,1.311-2.952   c0-1.627-1.019-3.114-2.594-3.79c-0.22-0.094-0.322-0.348-0.227-0.567c0.094-0.22,0.348-0.322,0.567-0.228   c1.894,0.812,3.118,2.612,3.118,4.585C46.443,65.812,44.068,68.067,41.148,68.067z M53.052,52.725   c-0.976,0.889-2.003,1.339-3.056,1.339c-0.059,0-0.119-0.001-0.178-0.004c-1.697-0.081-2.821-1.302-2.868-1.354   c-0.107-0.118-0.097-0.3,0.02-0.407c0.118-0.107,0.3-0.098,0.407,0.02c0.007,0.007,0.621,0.671,1.577,0.994   c1.258,0.424,2.506,0.083,3.71-1.013c0.117-0.107,0.3-0.098,0.407,0.019C53.179,52.436,53.17,52.618,53.052,52.725z M53.295,63.04   c0-1.973,1.224-3.773,3.118-4.585c0.22-0.094,0.474,0.008,0.567,0.228c0.095,0.219-0.007,0.474-0.227,0.567   c-1.576,0.676-2.594,2.163-2.594,3.79c0,1.153,0.502,2.198,1.311,2.953c0.77-1.194,0.533-2.685,0.531-2.701   c-0.026-0.157,0.08-0.306,0.237-0.332c0.157-0.026,0.306,0.08,0.332,0.237c0.013,0.078,0.281,1.776-0.65,3.162   c0.717,0.51,1.603,0.82,2.565,0.841c0.819-1.775,0.392-3.475,0.387-3.492c-0.04-0.154,0.052-0.311,0.207-0.351   c0.154-0.041,0.311,0.052,0.351,0.206c0.02,0.078,0.442,1.755-0.304,3.609c0.856-0.098,1.638-0.425,2.273-0.915   c0.26-0.664,0.359-1.327,0.295-1.975c-0.056-0.564-0.222-0.905-0.223-0.909c-0.071-0.143-0.012-0.315,0.13-0.386   c0.142-0.071,0.314-0.014,0.386,0.128c0.025,0.049,0.463,0.947,0.242,2.297c0.499-0.673,0.793-1.491,0.793-2.371   c0-1.459-0.829-2.829-2.164-3.578c-0.208-0.116-0.282-0.38-0.166-0.589c0.117-0.209,0.381-0.283,0.589-0.166   c0.778,0.436,1.43,1.057,1.886,1.797c0.471,0.766,0.722,1.643,0.722,2.535c0,2.772-2.376,5.027-5.296,5.027   C55.67,68.067,53.295,65.812,53.295,63.04z"/><path fill="none" d="M45.356,26.702c0.36-0.158,0.729-0.296,1.105-0.417c-0.786-5.824-3.535-10.412-5.731-13.256   c-1.217-1.577-2.399-2.804-3.281-3.639c-0.019,0.831,0.042,2.549,0.653,4.84C38.896,17.197,40.798,21.749,45.356,26.702z"/><path fill="none" d="M59.812,13.137c-2.197,2.846-4.948,7.437-5.732,13.266c0.356,0.137,0.704,0.294,1.047,0.471   c4.602-4.977,6.517-9.556,7.313-12.537c0.612-2.292,0.673-4.01,0.654-4.841C62.212,10.332,61.029,11.559,59.812,13.137z"/><path d="M45.876,38.492c0.114-0.112,0.116-0.294,0.004-0.408c-0.634-0.648-1.013-1.716-1.013-2.856   c0-0.941,0.251-1.822,0.706-2.482c0.433-0.626,0.998-0.971,1.591-0.971c0.593,0,1.158,0.345,1.591,0.971   c0.455,0.659,0.707,1.54,0.707,2.482c0,1.168-0.394,2.251-1.053,2.896c-0.114,0.111-0.116,0.294-0.005,0.407   c0.056,0.057,0.132,0.087,0.206,0.087c0.073,0,0.146-0.027,0.202-0.082c0.628-0.614,1.048-1.552,1.181-2.595   c0.133,1.043,0.554,1.981,1.182,2.595c0.056,0.055,0.129,0.082,0.202,0.082c0.075,0,0.149-0.029,0.206-0.087   c0.111-0.114,0.109-0.297-0.004-0.407c-0.66-0.645-1.053-1.728-1.053-2.896c0-0.941,0.25-1.822,0.706-2.482   c0.434-0.626,0.999-0.971,1.592-0.971c0.594,0,1.158,0.345,1.592,0.971c0.455,0.659,0.706,1.54,0.706,2.482   c0,1.14-0.378,2.208-1.013,2.856c-0.111,0.114-0.11,0.296,0.004,0.408c0.113,0.111,0.296,0.109,0.407-0.004   c0.738-0.754,1.179-1.973,1.179-3.26c0-1.057-0.287-2.055-0.808-2.809c-0.544-0.787-1.278-1.221-2.066-1.221   c-0.788,0-1.522,0.434-2.065,1.221c-0.402,0.581-0.664,1.307-0.764,2.093c-0.099-0.786-0.362-1.512-0.764-2.093   c-0.543-0.787-1.278-1.221-2.065-1.221c-0.788,0-1.522,0.434-2.065,1.221c-0.522,0.754-0.809,1.752-0.809,2.809   c0,1.287,0.441,2.506,1.179,3.26C45.58,38.601,45.762,38.603,45.876,38.492z"/><path d="M47.642,33.795c-0.543,0-0.982,0.822-0.982,1.838c0,1.015,0.439,1.838,0.982,1.838c0.542,0,0.981-0.823,0.981-1.838   C48.624,34.617,48.184,33.795,47.642,33.795z M47.511,36.081c-0.157,0-0.284-0.298-0.284-0.665c0-0.367,0.127-0.664,0.284-0.664   c0.156,0,0.284,0.298,0.284,0.664C47.795,35.783,47.668,36.081,47.511,36.081z"/><path d="M51.651,35.633c0,1.015,0.439,1.838,0.982,1.838c0.543,0,0.982-0.823,0.982-1.838c0-1.016-0.439-1.838-0.982-1.838   C52.09,33.795,51.651,34.617,51.651,35.633z M52.764,34.752c0.156,0,0.284,0.298,0.284,0.664c0,0.367-0.127,0.665-0.284,0.665   c-0.157,0-0.284-0.298-0.284-0.665C52.48,35.049,52.607,34.752,52.764,34.752z"/><path d="M68.848,89.071c-0.57-0.844-1.373-1.488-2.388-1.915c-0.794-0.333-1.716-0.533-2.743-0.595   c-0.789-0.047-1.513-0.005-2.074,0.055c1.381-1.839,2.508-4.058,3.356-6.618c0.962-2.904,1.532-6.121,1.693-9.561   c0.153-3.259-0.084-6.63-0.685-9.747c-0.569-2.951-1.465-5.678-2.602-7.924c0.995-0.364,1.907-0.942,2.679-1.71   c1.403-1.395,2.175-3.251,2.175-5.225c0-1.974-0.773-3.829-2.175-5.224c-0.844-0.839-1.855-1.452-2.959-1.806   c-0.223-0.948-0.817-3.124-2.032-5.476c-0.816-1.579-1.765-2.942-2.819-4.052c-0.491-0.517-1.007-0.979-1.544-1.386   c2.679-1.811,4.852-4.071,6.463-6.724c1.346-2.217,2.303-4.709,2.846-7.408c0.482-2.396,0.541-4.516,0.505-5.873   c-0.039-1.476-0.191-2.378-0.198-2.416c-0.02-0.118-0.089-0.223-0.189-0.288c-0.1-0.066-0.223-0.087-0.34-0.059   c-3.109,0.76-5.79,2.337-7.971,4.685c-1.735,1.869-3.156,4.226-4.222,7.006c-0.944,2.463-1.431,4.81-1.673,6.345   c-0.196,1.244-0.267,2.158-0.291,2.56c-0.877-0.18-1.885-0.159-2.778,0.012c-0.023-0.398-0.093-1.324-0.291-2.589   c-0.242-1.545-0.728-3.906-1.672-6.382c-1.066-2.796-2.487-5.165-4.222-7.043c-2.181-2.36-4.864-3.942-7.972-4.702   c-0.116-0.029-0.24-0.007-0.34,0.058c-0.1,0.065-0.169,0.17-0.189,0.288c-0.007,0.038-0.159,0.94-0.198,2.417   c-0.036,1.356,0.023,3.476,0.505,5.873c0.543,2.698,1.5,5.19,2.846,7.407c1.571,2.589,3.678,4.804,6.267,6.593   c-0.713,0.471-1.385,1.025-2.012,1.661c-1.154,1.17-2.159,2.616-2.989,4.299c-1.157,2.35-1.638,4.471-1.781,5.205   c-1.089,0.356-2.086,0.964-2.92,1.794c-1.403,1.395-2.175,3.251-2.175,5.224c0,1.974,0.773,3.83,2.175,5.225   c0.772,0.768,1.684,1.345,2.679,1.71c-1.137,2.246-2.034,4.973-2.602,7.924c-0.601,3.117-0.837,6.487-0.685,9.747   c0.161,3.44,0.731,6.657,1.693,9.561c0.849,2.56,1.975,4.779,3.356,6.618c-0.56-0.061-1.284-0.102-2.073-0.055   c-1.027,0.062-1.95,0.262-2.743,0.595c-1.015,0.426-1.818,1.071-2.388,1.915c-0.954,1.412-0.707,2.973,0.658,4.176   C33.077,94.361,35.101,95,37.314,95c0.208,0,0.418-0.006,0.629-0.017c1.352-0.073,2.698-0.376,3.997-0.9   c1.44-0.58,2.792-1.421,4.018-2.499c0.021-0.018,0.039-0.038,0.055-0.059c0.507,0.154,1.09,0.302,1.737,0.419   c0.872,0.157,1.746,0.236,2.61,0.236c0.493,0,0.982-0.025,1.466-0.077c0.78-0.083,1.547-0.233,2.298-0.448   c1.205,1.044,2.528,1.861,3.935,2.428c1.3,0.524,2.645,0.826,3.998,0.9C62.268,94.994,62.478,95,62.687,95   c2.212,0,4.236-0.639,5.504-1.753C69.556,92.044,69.803,90.483,68.848,89.071z M67.618,92.597c-0.147,0.13-0.309,0.252-0.482,0.367   c-0.121-0.32-0.324-0.728-0.663-1.128c-0.634-0.75-1.881-1.619-4.218-1.498c-0.239,0.013-0.422,0.216-0.41,0.455   c0.012,0.239,0.216,0.422,0.455,0.41c1.571-0.081,2.744,0.308,3.486,1.16c0.328,0.377,0.499,0.768,0.583,1.026   c-1.18,0.544-2.701,0.815-4.265,0.73c-1.773-0.096-4.386-0.667-7.011-2.782c0.521-0.193,1.033-0.417,1.534-0.674   c0.212-0.109,0.296-0.37,0.187-0.582c-0.109-0.212-0.37-0.296-0.583-0.187c-3.203,1.645-6.279,1.563-8.296,1.204   c-2.202-0.392-3.66-1.189-3.675-1.198c-0.209-0.116-0.472-0.041-0.588,0.168c-0.116,0.209-0.041,0.472,0.167,0.588   c0.034,0.019,0.475,0.261,1.23,0.548c-2.68,2.225-5.365,2.817-7.174,2.915c-1.564,0.085-3.085-0.186-4.265-0.73   c0.085-0.258,0.255-0.649,0.583-1.026c0.742-0.852,1.915-1.242,3.486-1.16c0.239,0.012,0.442-0.171,0.454-0.41   c0.013-0.239-0.17-0.442-0.409-0.455c-2.337-0.121-3.584,0.748-4.218,1.498c-0.338,0.4-0.542,0.809-0.663,1.128   c-0.173-0.115-0.335-0.238-0.482-0.367c-0.253-0.222-0.552-0.545-0.743-0.95c0.09-0.214,0.315-0.656,0.776-1.092   c0.858-0.813,2.086-1.225,3.65-1.225c0.239,0,0.432-0.194,0.432-0.433c0-0.239-0.194-0.432-0.432-0.432   c-2.267,0-3.584,0.818-4.288,1.504c-0.086,0.084-0.165,0.168-0.238,0.251c0.068-0.212,0.174-0.434,0.33-0.664   c0.867-1.285,2.363-2.001,4.446-2.129c1.317-0.082,2.469,0.11,2.847,0.184c0.059,0.068,0.118,0.137,0.178,0.204   c0.085,0.095,0.203,0.144,0.322,0.144c0.103,0,0.207-0.037,0.289-0.111c0.178-0.159,0.192-0.433,0.033-0.61   c-3.417-3.8-5.481-9.78-5.811-16.839c-0.298-6.369,0.921-12.831,3.266-17.378c0.559,0.132,1.138,0.2,1.727,0.2   c0.239,0,0.432-0.194,0.432-0.432c0-0.239-0.194-0.433-0.432-0.433c-3.617,0-6.559-2.926-6.559-6.523   c0-3.597,2.942-6.523,6.559-6.523c0.239,0,0.432-0.194,0.432-0.432c0-0.239-0.194-0.432-0.432-0.432   c-0.473,0-0.938,0.044-1.393,0.13c0.206-0.913,0.685-2.683,1.622-4.583c1.337-2.713,3.079-4.7,5.196-5.934   c0.028-0.013,0.056-0.028,0.081-0.047c0.698-0.398,1.436-0.716,2.213-0.952c0.228-0.068,0.358-0.31,0.289-0.538   c-0.029-0.096-0.088-0.174-0.163-0.227c-0.343-2.604-1.093-5.179-2.235-7.66c-0.949-2.063-2.169-4.063-3.625-5.948   c-1.434-1.856-2.822-3.236-3.743-4.074c-0.008-0.008-0.016-0.015-0.024-0.022c-0.658-0.597-1.072-0.913-1.082-0.921   c-0.119-0.089-0.288-0.066-0.378,0.053c-0.09,0.119-0.066,0.288,0.052,0.378c0.009,0.007,0.372,0.285,0.958,0.811   c-0.044,0.537-0.131,2.514,0.641,5.425c0.522,1.967,1.331,3.955,2.406,5.906c1.263,2.295,2.899,4.546,4.865,6.7   c-0.138,0.069-0.275,0.141-0.41,0.215c-6.023-4.012-8.261-9.624-9.075-13.648c-0.708-3.496-0.495-6.431-0.37-7.534   c5.106,1.408,8.845,5.13,11.115,11.069c1.696,4.435,1.911,8.568,1.926,8.907c-0.153,0.052-0.299,0.108-0.436,0.17   c-0.154,0.069-0.223,0.25-0.153,0.405c0.069,0.155,0.25,0.224,0.405,0.154c1.432-0.643,3.644-0.635,4.733,0.017   c0.049,0.029,0.104,0.044,0.157,0.044c0.104,0,0.206-0.053,0.263-0.149c0.087-0.145,0.04-0.333-0.105-0.42   c-0.119-0.071-0.246-0.135-0.379-0.192c0-0.002,0-0.004,0-0.006c0.001-0.042,0.162-4.274,1.918-8.853   c2.268-5.917,6.01-9.628,11.125-11.038c0.125,1.099,0.337,4.014-0.364,7.504c-0.817,4.065-3.083,9.746-9.224,13.773   c-0.117-0.074-0.234-0.147-0.353-0.217c2.004-2.182,3.668-4.465,4.95-6.792c1.075-1.952,1.884-3.939,2.406-5.906   c0.773-2.912,0.686-4.89,0.641-5.426c0.584-0.525,0.947-0.803,0.958-0.811c0.119-0.089,0.143-0.259,0.052-0.378   c-0.089-0.119-0.26-0.143-0.378-0.052c-0.01,0.007-0.423,0.323-1.08,0.919c-0.01,0.008-0.018,0.016-0.027,0.024   c-0.921,0.838-2.309,2.218-3.742,4.073c-1.456,1.884-2.675,3.886-3.624,5.948c-1.131,2.456-1.878,5.004-2.225,7.581   c-0.112,0.044-0.206,0.134-0.25,0.257c-0.08,0.225,0.037,0.473,0.262,0.553c5.715,2.039,7.99,9.01,8.619,11.433   c-0.438-0.079-0.885-0.12-1.339-0.12c-0.239,0-0.433,0.194-0.433,0.432c0,0.239,0.194,0.432,0.433,0.432   c3.617,0,6.559,2.926,6.559,6.523c0,3.597-2.942,6.523-6.559,6.523c-0.239,0-0.433,0.194-0.433,0.433   c0,0.239,0.194,0.432,0.433,0.432c0.589,0,1.167-0.068,1.726-0.2c2.345,4.547,3.565,11.009,3.267,17.378   c-0.33,7.059-2.394,13.039-5.811,16.839c-0.16,0.178-0.145,0.451,0.032,0.61c0.083,0.074,0.186,0.111,0.289,0.111   c0.119,0,0.236-0.049,0.322-0.144c0.06-0.067,0.119-0.136,0.178-0.204c0.378-0.073,1.53-0.266,2.848-0.184   c2.083,0.129,3.578,0.845,4.445,2.129c0.155,0.23,0.262,0.451,0.33,0.663c-0.073-0.083-0.152-0.167-0.237-0.25   c-0.705-0.686-2.021-1.504-4.288-1.504c-0.239,0-0.433,0.194-0.433,0.432c0,0.239,0.194,0.433,0.433,0.433   c1.564,0,2.792,0.412,3.65,1.225c0.46,0.437,0.685,0.879,0.776,1.093C68.17,92.052,67.871,92.375,67.618,92.597z M37.45,9.389   c0.882,0.836,2.064,2.063,3.281,3.639c2.195,2.845,4.945,7.432,5.731,13.256c-0.376,0.12-0.745,0.259-1.105,0.417   c-4.558-4.953-6.461-9.505-7.253-12.473C37.492,11.938,37.431,10.22,37.45,9.389z M63.093,9.496   c0.019,0.831-0.042,2.549-0.654,4.841c-0.795,2.981-2.711,7.559-7.313,12.537c-0.342-0.177-0.691-0.334-1.047-0.471   c0.784-5.829,3.535-10.42,5.732-13.266C61.029,11.559,62.212,10.332,63.093,9.496z"/><path d="M45.657,46.19c0.64,0.406,1.396,0.711,2.218,0.903c-0.021,0.501-0.02,1.587,0.295,2.448   c0.036,0.097,0.117,0.17,0.218,0.195c0.049,0.012,0.84,0.202,1.805,0.202c0.501,0,1.051-0.051,1.566-0.206   c0.14-0.041,0.231-0.175,0.22-0.32c-0.001-0.015-0.097-1.371,0.045-2.305c0.844-0.191,1.619-0.501,2.274-0.917   c1.181-0.75,1.841-1.757,1.864-2.841c1.426,0.049,3.219,0.221,5.09,0.679c0.015,0.003,0.029,0.005,0.043,0.005   c0.081,0,0.155-0.055,0.175-0.137c0.023-0.097-0.036-0.194-0.132-0.218c-1.911-0.467-3.741-0.641-5.192-0.689   c-0.045-0.413-0.18-0.816-0.399-1.195c1.432-0.192,3.273-0.306,5.063-0.032c0.099,0.015,0.191-0.052,0.205-0.151   c0.015-0.099-0.052-0.191-0.151-0.205c-1.903-0.291-3.856-0.155-5.337,0.055c-0.187-0.252-0.412-0.491-0.675-0.711   c-0.118-0.098-0.242-0.192-0.372-0.281c1.226-0.404,3.121-0.891,5.642-1.137c0.099-0.009,0.172-0.098,0.162-0.197   c-0.009-0.099-0.098-0.171-0.197-0.162c-2.749,0.268-4.768,0.821-6,1.248c-0.684-0.393-1.496-0.677-2.396-0.833   c-0.09-0.224-0.252-0.428-0.477-0.593c-0.335-0.246-0.774-0.381-1.238-0.381c-0.464,0-0.904,0.135-1.238,0.381   c-0.226,0.166-0.389,0.37-0.478,0.595c-0.884,0.154-1.683,0.43-2.359,0.813c-1.236-0.424-3.237-0.965-5.946-1.23   c-0.099-0.009-0.187,0.063-0.196,0.162c-0.01,0.1,0.063,0.188,0.162,0.197c2.481,0.242,4.357,0.718,5.584,1.118   c-0.14,0.096-0.275,0.196-0.401,0.302c-0.258,0.216-0.48,0.451-0.665,0.698c-1.471-0.203-3.389-0.33-5.258-0.044   c-0.099,0.015-0.167,0.106-0.151,0.205c0.015,0.098,0.108,0.166,0.205,0.151c1.757-0.269,3.563-0.164,4.983,0.022   c-0.224,0.383-0.361,0.791-0.406,1.209c-1.437,0.053-3.232,0.229-5.105,0.686c-0.097,0.024-0.156,0.122-0.132,0.218   c0.02,0.082,0.094,0.137,0.175,0.137c0.014,0,0.028-0.002,0.042-0.005c1.834-0.449,3.591-0.623,5.004-0.676   C43.817,44.435,44.477,45.441,45.657,46.19z M51.344,49.2c-1.043,0.238-2.219,0.052-2.644-0.031c-0.207-0.678-0.22-1.5-0.207-1.953   c0.48,0.076,0.977,0.116,1.484,0.116l0,0l0,0c0,0,0,0,0.001,0c0.478,0,0.948-0.036,1.404-0.104   C51.299,47.946,51.323,48.784,51.344,49.2z M54.816,41.571c-1.64,0.283-2.779,0.647-2.789,0.651   c-0.095,0.031-0.147,0.132-0.116,0.227c0.025,0.076,0.095,0.124,0.172,0.124c0.018,0,0.036-0.002,0.055-0.009   c0.011-0.003,1.135-0.364,2.762-0.642c0.058-0.01,0.117-0.02,0.176-0.029c0.24,0.34,0.389,0.704,0.442,1.082   c-0.232-0.003-0.452-0.002-0.656,0.001c-1.688,0.023-2.762,0.189-2.808,0.196c-0.098,0.015-0.165,0.108-0.15,0.206   c0.015,0.098,0.108,0.165,0.206,0.15c0.011-0.001,1.099-0.169,2.765-0.192c0.207-0.003,0.429-0.003,0.665,0   c-0.018,0.87-0.575,1.697-1.574,2.331c-0.644,0.409-1.42,0.705-2.267,0.876c-0.002,0-0.005,0.001-0.007,0.001   c-0.467,0.093-0.955,0.149-1.456,0.163c-0.371-2.101-0.084-4.46,0.017-5.158c0.759-0.143,1.383-0.854,1.502-1.518   c0.555,0.109,1.076,0.274,1.544,0.486c-0.858,0.346-1.287,0.608-1.309,0.621c-0.084,0.052-0.111,0.163-0.059,0.247   c0.034,0.056,0.093,0.086,0.154,0.086c0.032,0,0.065-0.008,0.095-0.026c0.005-0.004,0.525-0.319,1.553-0.71   c0.266,0.148,0.509,0.313,0.723,0.492C54.585,41.337,54.706,41.452,54.816,41.571z M44.889,41.88   c0.085,0.014,0.168,0.027,0.248,0.041c1.628,0.278,2.757,0.64,2.768,0.643c0.019,0.006,0.038,0.009,0.056,0.009   c0.076,0,0.146-0.048,0.171-0.124c0.031-0.095-0.021-0.196-0.116-0.227c-0.012-0.004-1.16-0.372-2.812-0.655   c-0.017-0.003-0.035-0.006-0.052-0.009c0.106-0.114,0.222-0.224,0.349-0.331c0.224-0.188,0.48-0.36,0.76-0.514   c1.064,0.401,1.6,0.726,1.606,0.73c0.03,0.018,0.062,0.026,0.094,0.026c0.061,0,0.12-0.03,0.154-0.085   c0.052-0.085,0.025-0.196-0.06-0.248c-0.022-0.014-0.466-0.285-1.355-0.64c0.456-0.202,0.962-0.361,1.499-0.466   c0.115,0.641,0.701,1.326,1.425,1.501c-0.114,0.797-0.372,3.058-0.021,5.169c-1.369-0.056-2.64-0.418-3.612-1.035   c-0.999-0.634-1.555-1.461-1.574-2.33c0.268-0.004,0.519-0.004,0.752-0.001c1.665,0.023,2.753,0.191,2.764,0.192   c0.099,0.016,0.191-0.052,0.206-0.15c0.015-0.098-0.052-0.191-0.15-0.206c-0.044-0.007-1.119-0.174-2.808-0.196   c-0.23-0.003-0.479-0.003-0.743,0.001C44.491,42.593,44.643,42.224,44.889,41.88z"/><path d="M43.325,58.455c-0.22-0.094-0.474,0.008-0.567,0.228c-0.095,0.219,0.007,0.474,0.227,0.567   c1.576,0.676,2.594,2.163,2.594,3.79c0,1.153-0.502,2.198-1.311,2.952c-0.766-1.19-0.533-2.684-0.531-2.701   c0.026-0.157-0.08-0.306-0.237-0.332c-0.157-0.026-0.306,0.08-0.332,0.237c-0.013,0.078-0.282,1.776,0.65,3.162   c-0.717,0.51-1.603,0.82-2.565,0.841c-0.814-1.766-0.394-3.469-0.388-3.493c0.04-0.154-0.052-0.311-0.207-0.351   c-0.154-0.041-0.311,0.052-0.351,0.206c-0.02,0.078-0.442,1.755,0.304,3.609c-0.856-0.097-1.639-0.424-2.274-0.915   c-0.259-0.664-0.359-1.327-0.295-1.975c0.055-0.561,0.22-0.902,0.223-0.909c0.071-0.142,0.014-0.315-0.128-0.386   c-0.143-0.071-0.316-0.015-0.387,0.128c-0.025,0.049-0.464,0.947-0.242,2.298c-0.499-0.674-0.793-1.491-0.793-2.372   c0-1.459,0.829-2.829,2.164-3.578c0.209-0.116,0.283-0.38,0.166-0.589c-0.116-0.209-0.38-0.283-0.589-0.166   c-0.778,0.436-1.43,1.057-1.885,1.797c-0.472,0.766-0.722,1.643-0.722,2.535c0,2.772,2.376,5.027,5.296,5.027   c2.92,0,5.296-2.255,5.296-5.027C46.443,61.067,45.22,59.267,43.325,58.455z"/><path d="M39.885,55.455c-0.131,0.091-0.163,0.271-0.071,0.402c0.056,0.08,0.146,0.124,0.236,0.124c0.057,0,0.115-0.017,0.165-0.052   c0.039-0.026,0.96-0.639,2.127,0.015c0.139,0.078,0.315,0.028,0.392-0.111c0.078-0.139,0.028-0.314-0.111-0.392   C41.132,54.604,39.936,55.42,39.885,55.455z"/><path d="M63.886,63.04c0-0.893-0.25-1.769-0.722-2.535c-0.456-0.74-1.108-1.361-1.886-1.797c-0.208-0.117-0.471-0.043-0.589,0.166   c-0.116,0.209-0.042,0.472,0.166,0.589c1.335,0.749,2.164,2.119,2.164,3.578c0,0.881-0.294,1.698-0.793,2.371   c0.221-1.35-0.217-2.249-0.242-2.297c-0.071-0.142-0.244-0.199-0.386-0.128c-0.142,0.071-0.2,0.244-0.13,0.386   c0.001,0.004,0.167,0.345,0.223,0.909c0.064,0.648-0.035,1.311-0.295,1.975c-0.635,0.49-1.417,0.817-2.273,0.915   c0.746-1.854,0.324-3.531,0.304-3.609c-0.04-0.154-0.198-0.247-0.351-0.206c-0.154,0.04-0.247,0.197-0.207,0.351   c0.005,0.018,0.432,1.717-0.387,3.492c-0.961-0.021-1.848-0.331-2.565-0.841c0.932-1.386,0.663-3.085,0.65-3.162   c-0.026-0.157-0.175-0.263-0.332-0.237c-0.157,0.026-0.263,0.175-0.237,0.332c0.003,0.016,0.24,1.507-0.531,2.701   c-0.809-0.755-1.311-1.8-1.311-2.953c0-1.627,1.019-3.114,2.594-3.79c0.22-0.094,0.322-0.348,0.227-0.567   c-0.094-0.22-0.348-0.322-0.567-0.228c-1.894,0.812-3.118,2.612-3.118,4.585c0,2.772,2.375,5.027,5.295,5.027   C61.51,68.067,63.886,65.812,63.886,63.04z"/><path d="M57.115,55.44c-0.14,0.078-0.189,0.253-0.111,0.392c0.053,0.095,0.151,0.148,0.252,0.148c0.047,0,0.096-0.012,0.14-0.037   c1.166-0.653,2.086-0.042,2.127-0.015c0.13,0.09,0.309,0.058,0.4-0.071c0.092-0.131,0.06-0.311-0.071-0.402   C59.803,55.42,58.606,54.604,57.115,55.44z"/><path d="M52.664,52.299c-1.204,1.096-2.452,1.438-3.71,1.013c-0.957-0.322-1.571-0.987-1.577-0.994   c-0.107-0.118-0.289-0.127-0.407-0.02c-0.118,0.106-0.127,0.289-0.02,0.407c0.047,0.052,1.171,1.272,2.868,1.354   c0.06,0.003,0.119,0.004,0.178,0.004c1.053,0,2.08-0.45,3.056-1.339c0.118-0.107,0.127-0.29,0.02-0.407   C52.964,52.201,52.781,52.192,52.664,52.299z"/><path d="M45.581,30.304c0.008-0.007,0.789-0.752,1.72-0.721c0.498,0.017,0.961,0.255,1.374,0.709   c0.049,0.055,0.118,0.083,0.186,0.083c0.06,0,0.122-0.022,0.17-0.065c0.103-0.095,0.111-0.254,0.017-0.356   c-0.509-0.561-1.093-0.855-1.734-0.874c-1.147-0.035-2.046,0.826-2.084,0.863c-0.1,0.097-0.102,0.256-0.005,0.357   C45.321,30.398,45.481,30.401,45.581,30.304z"/><path d="M51.136,30.376c0.068,0,0.137-0.028,0.187-0.083c0.412-0.454,0.875-0.693,1.374-0.709c0.93-0.031,1.712,0.714,1.72,0.721   c0.1,0.097,0.259,0.095,0.357-0.006c0.097-0.1,0.095-0.259-0.005-0.357c-0.037-0.036-0.902-0.864-2.015-0.864   c-0.023,0-0.045,0.001-0.068,0.001c-0.642,0.02-1.225,0.314-1.734,0.874c-0.094,0.103-0.087,0.262,0.017,0.356   C51.014,30.354,51.075,30.376,51.136,30.376z"/></g></svg>