<svg xmlns="http://www.w3.org/2000/svg" data-name="Слой 1" viewBox="0 0 100 125" x="0px" y="0px"><title>animal-01-01-01</title><g><path d="M74.20093,53.07983c1.02885-1.17411,2.01839-2.27728,1.08716-4.02243-0.84237-1.57852-2.34209-2.15306-4.14723-2.50723,0.81392-1.31459,1.74633-2.52132.67806-4.04507-1.0053-1.43392-2.71071-1.35068-4.25912-1.72929a3.73729,3.73729,0,0,0-.63566-4.39071,14.02329,14.02329,0,0,0-2.38389-1.48967,1.66386,1.66386,0,0,1-.77423-0.91411c0.05487-1.64765.22883-3.28093,0.36509-4.94651a2.657,2.657,0,0,1,.2581.34667,22.93077,22.93077,0,0,0,5.88243,7.09462c1.167,0.97594,2.36347.99951,2.93719-.15754a4.17747,4.17747,0,0,0,.39587-2.52793,19.27039,19.27039,0,0,0-3.71226-7.588C69.311,25.41553,68.40734,24.821,67.77,24.05827c-1.23913-1.48276-2.36879-3.03882-3.594-4.53147a28.39173,28.39173,0,0,0-2.09887-2.22512,7.83644,7.83644,0,0,0-1.23664-.763,1.30456,1.30456,0,0,1,.66956-0.3015,4.71511,4.71511,0,0,0,5.1888-1.97253,3.09746,3.09746,0,0,0,.83248-1.85474,4.37049,4.37049,0,0,0-2.58317-3.6353c-0.71007-.31382-1.45115-0.56422-2.13765-0.92017a3.66224,3.66224,0,0,1-.8259-0.7853c-0.96155-1.00028-1.74986-2.33855-2.91893-2.922a13.26815,13.26815,0,0,0-4.69523-1.03408C53.0349,2.997,51.59926,3.07574,50.90922,4.249a33.96021,33.96021,0,0,0-4.67946-.49427c-1.77378.05094-3.44089,0.54686-4.09137,2.27146a9.06826,9.06826,0,0,0-.29544,1.55726c-1.42648-.84156-2.91484-1.3228-4.15369-0.58684a6.83392,6.83392,0,0,0-3.09143,3.46165c-1.05965,2.87555,1.23725,5.89233,4.61172,6.00773,0.59255,0.02023,1.19206.142,1.80917,0.21943-1.595,1.35541-3.16375,2.6212-4.64372,3.96985A25.2467,25.2467,0,0,0,33.65306,23.527c-1.46229,1.82936-2.92042,3.65864-3.40351,6.05385-0.26,1.28914.14208,1.70243,1.48722,2.40984,0.9721,0.51124.79614,0.8111,0.23837,1.20416A3.02854,3.02854,0,0,0,30.761,36.50156c0.10431,0.58555.1844,1.17255,0.27644,1.7647-1.84852.49524-3.7249,0.78892-4.94643,2.17994a12.66968,12.66968,0,0,0-1.7793,1.9719,6.22459,6.22459,0,0,0-.94766,2.97972c0.02113,0.91891.76535,1.88043,1.11615,2.84006a1.40657,1.40657,0,0,1,.00916,1.08136,6.30958,6.30958,0,0,0-.8505,5.39061,3.42736,3.42736,0,0,0,.94852,1.55141,33.10691,33.10691,0,0,0,2.85114,1.96757c-0.44316,2.34409.69784,4.40061,2.61835,6.227a10.38449,10.38449,0,0,0,6.72965,3.12336c0.29071,0.81967.51076,1.57583,0.82659,2.30439a7.92748,7.92748,0,0,0,4.519,4.01983,1.06673,1.06673,0,0,1,.80607,1.1866c-0.09592,1.24784-.07137,2.51438-0.11041,3.77164-0.07542,2.42739-.16031,4.85367-0.24124,7.28045A5.00174,5.00174,0,0,0,37.861,92.38506c0.43415,1.56062,1.68762,2.35257,2.8935,3.223,2.71527,1.9599,5.4921,1.70134,7.47208-.55867a7.49021,7.49021,0,0,0,1.73792-4.30959,19.36612,19.36612,0,0,0,1.54631,1.90892c2.06943,2.02227,4.37085,3.66446,7.41218,2.98027a6.46655,6.46655,0,0,0,2.53736-1.41506c2.13047-1.74376,2.32221-4.28318,2.23136-6.82448a3.66329,3.66329,0,0,0-1.28936-2.22,9.58055,9.58055,0,0,0-2.59287-1.09528c0.41551-2.16.86874-4.48775,1.30929-6.81857,0.20615-1.09065.35174-2.198,0.61083-3.27258a0.85888,0.85888,0,0,1,.74909-0.45634,3.59608,3.59608,0,0,0,3.865-1.57816,22.14127,22.14127,0,0,0,1.28365-2.4488c2.07548,0.106,4.27351.12056,5.61052-1.89315,1.31319-1.97766,1.25261-3.815-.92407-5.723a4.57058,4.57058,0,0,0,4.153-3.75568C77.01487,56.09638,76.25607,54.35765,74.20093,53.07983ZM61.2133,17.93463c1.02133,1.05271,2.10059,2.065,3.05079,3.16747,1.48885,1.72748,2.99023,3.46071,4.29933,5.295a49.66886,49.66886,0,0,1,3.09325,5.14673,8.03629,8.03629,0,0,1,.907,2.6174,2.11911,2.11911,0,0,1-.63358,1.4864,2.784,2.784,0,0,1-1.35828-.57631,16.86786,16.86786,0,0,1-5.35313-6.73221,0.45592,0.45592,0,0,0-.12965-0.17184c-1.61735-1.298-1.47633-3.17966-2.24941-4.75887a49.5068,49.5068,0,0,1-1.82806-4.82873,2.4715,2.4715,0,0,1-.07886-0.48026Zm1.13626,7.8261a18.24038,18.24038,0,0,1,.25,5.0637,12.03946,12.03946,0,0,1-1.06875,5.18981,11.75107,11.75107,0,0,1-3.56756,4.43183A28.091,28.091,0,0,1,54.649,42.61893a5.84232,5.84232,0,0,1-1.89169.28991,11.83245,11.83245,0,0,1-.35116-1.36876c-0.13915-1.16638-.27-2.33512-0.31525-3.49755a1.19071,1.19071,0,0,1,.76055-0.42151,13.68648,13.68648,0,0,0,2.57263-.682,3.45436,3.45436,0,0,0,1.69515-3.69183,4.09639,4.09639,0,0,1-.00824-0.59646c0.06-.89825-0.38853-1.30309-1.53077-1.2451a11.36556,11.36556,0,0,0,.20161,1.24908c0.33408,1.23244.02448,1.82406-1.20832,1.90334-1.42922.092-2.8762,0.11838-4.32274,0.076a1.95073,1.95073,0,0,1-2.14993-2.18677,9.88942,9.88942,0,0,0-.11943-1.32886c-0.97506-.21091-1.163.25154-1.10224,0.83762,0.21886,2.11192.79731,4.0311,3.1775,5.23927a2.5214,2.5214,0,0,1,.8826,1.71917,36.78125,36.78125,0,0,1,.17271,3.70237c-1.9325.1716-3.44184-.955-4.79456-1.89464a8.40835,8.40835,0,0,1-3.82606-6.70216,64.35714,64.35714,0,0,1,.64094-11.14238c0.232-2.11522.73913-4.17963,1.14951-6.4144A22.39514,22.39514,0,0,0,46.66551,17.705a19.00124,19.00124,0,0,0,3.25312.9419,4.24846,4.24846,0,0,0,2.98015-.98361,1.43582,1.43582,0,0,1,1.07692-.10937,5.86591,5.86591,0,0,0,3.902.21981c0.75971-.2299,1.23787-0.15206,1.82181.84031A27.43778,27.43778,0,0,1,62.34956,25.76073ZM38.652,15.30839c-1.81193-.22334-2.5159-1.07282-2.95915-3.03915A4.16829,4.16829,0,0,1,39.01106,7.6906a1.01693,1.01693,0,0,1,1.3688.64651,1.34284,1.34284,0,0,0,1.833.63309,1.33633,1.33633,0,0,0,.95368-0.878c0.0563-3.30526,2.62191-3.89035,5.42118-3.2445,1.22312,0.28217,2.44493.58241,2.75559,2.05854a1.48009,1.48009,0,0,0,1.12285.48258c0.55715-.08914.746-0.51706,0.28612-1.05669A1.59945,1.59945,0,0,1,52.60969,5.943c-0.67138-1.47152-.27951-2.07316,1.73139-2.13882,1.64523,0.62356,3.85485.49789,5.50763,2.20694a1.98685,1.98685,0,0,1,.54379,2.55719,2.86449,2.86449,0,0,0-.11015.99756,2.67737,2.67737,0,0,0,1.21705-.06725c1.31747-1.00891,2.36875.05618,3.483,0.6132a2.04988,2.04988,0,0,1,1.01421,2.32872,2.687,2.687,0,0,1-1.96847,2.48221,3.50122,3.50122,0,0,1-3.27026-.27626,5.40959,5.40959,0,0,1-.66821-0.67742,0.84768,0.84768,0,0,0-1.38156-.08925,0.87219,0.87219,0,0,0,.14117,1.40628,5.007,5.007,0,0,1,.63842.738,3.151,3.151,0,0,1-.73631.42079,9.43843,9.43843,0,0,1-2.14523.44332c-1.16141.032-2.24667-.1892-2.68748-1.54059a1.36513,1.36513,0,0,0-.99566-0.66315,0.689,0.689,0,0,0-.40735,1.17661c0.37032,0.53712.14854,0.76173-.3165,1.00422a5.5527,5.5527,0,0,1-5.85717-.5522,5.20992,5.20992,0,0,1-.79309-1.39373,14.52031,14.52031,0,0,0-.93242-1.16085c-0.21154.35711-.40171,0.72824-0.64214,1.06628a1.14667,1.14667,0,0,1-.59518.57527A34.437,34.437,0,0,1,38.652,15.30839ZM31.58347,30.11272c-0.3498-1.31818.46726-2.21591,1.06738-3.15028a28.16727,28.16727,0,0,1,6.99259-7.54716c0.95485-.70459,1.87916-1.443,2.81733-2.16593A8.30772,8.30772,0,0,1,39.99693,24.118c-1.286,1.29535-2.27366,2.84456-3.51508,4.18223a24.87912,24.87912,0,0,1-3.10179,2.73654C32.80772,31.47662,31.78635,30.87718,31.58347,30.11272Zm10.1952-6.2903c-0.257,2.34572-.49532,4.52033-0.71,6.48-1.81623.20532-3.57634,0.40428-5.29945,0.59909C37.68631,28.64316,39.681,26.29338,41.77866,23.82241Zm4.64224,71.212a1.46842,1.46842,0,0,1-.40362.27937,2.28023,2.28023,0,0,1-.53918.05566l-0.00446-.05679a3.33874,3.33874,0,0,1-1.25583.26152,3.063,3.063,0,0,1-1.89986-.54736,6.044,6.044,0,0,1-.76791-0.2857,3.76222,3.76222,0,0,1-2.06733-5.07261c0.22454-.42841.26787-0.94749,0.46419-1.39353,0.49886-1.13364,1.50372-1.27979,2.57137-.46425a3.17763,3.17763,0,0,1,1.52488-.40567c0.013-.00028.0236,0.00273,0.0365,0.00259a3.67134,3.67134,0,0,0,.00526-1.00708c-0.163-1.78959-.05706-3.57535-0.05409-5.36188,0.00236-1.45917.0264-2.91629,0.0236-4.37594a1.746,1.746,0,0,1,1.187-2.03455c0.04841,1.0276.15767,1.93036,0.11882,2.81388-0.08194,1.862-.2231,3.717-0.37653,5.56889-0.08109.97838-.25508,1.9413-0.35533,2.91691-0.04995.48638-.01838,0.987-0.04318,1.4786-0.0006.01144-.00016,0.02544-0.00054,0.03727a3.01274,3.01274,0,0,1,.98178.29117c-0.00529-.04957-0.02079-0.10189-0.02175-0.1503,2.14184-.55589,2.94634.30023,3.09414,2.4319A5.84671,5.84671,0,0,1,46.4209,95.03444Zm3.41669-6.10038c-0.547-1.70831-1.97887-2.75211-4.266-3.05838,0.37608-3.83592.74341-7.58333,1.11711-11.39529,1.33678-.31042,3.06268-0.131,3.90723-1.43748a24.76339,24.76339,0,0,0,3.16362.99938,21.52124,21.52124,0,0,0,3.14583.12446C56.84719,77.83389,56.78889,81.507,56.729,85.28a2.72611,2.72611,0,0,0-3.51271.34023A44.88919,44.88919,0,0,0,49.83759,88.93407Zm10.45556-3.52682c1.67234,0.39162,2.31659.89408,2.24975,2.29873-0.07584,1.59346.00185,3.29146-1.09849,4.60009-0.54656.65-1.148,1.26056-1.754,1.86348a0.54109,0.54109,0,0,1-.54716.20355,3.20744,3.20744,0,0,1-1.46764.37214,3.01972,3.01972,0,0,1-1.97927-.6145c-1.85419-.51821-3.04863-1.92252-4.18746-3.3633A1.85383,1.85383,0,0,1,51.273,89.453a4.55558,4.55558,0,0,1,3.155-3.51831,3.36979,3.36979,0,0,1,1.36463.05591c0.2713,0.02413.56433,0.0686,0.89982,0.118,0.04915-.00924.1049-0.00977,0.155-0.01778a3.46871,3.46871,0,0,1,2.44739-.05061c0.12631-.32417.251-0.64633,0.38388-0.97864A2.82638,2.82638,0,0,0,60.29315,85.40725ZM58.277,85.566l-0.3338-.04235c-0.03224-1.3366-.03153-2.67166-0.10421-4.01011a36.58172,36.58172,0,0,1,.27592-6.49264,2.709,2.709,0,0,1,1.48157-2.04838,3.0011,3.0011,0,0,1,1.22332.094C59.94843,77.34985,59.11267,81.45788,58.277,85.566ZM71.249,60.54971a1.47882,1.47882,0,0,0-1.89114.97506,11.22376,11.22376,0,0,0,1.05079.52812,5.15572,5.15572,0,0,1,2.59654,2.79,1.56667,1.56667,0,0,1-.23191,1.07647,4.55484,4.55484,0,0,1-4.69,2.45042,2.06221,2.06221,0,0,1-.942-0.58977c-0.576-.54567-1.06063-1.17958-1.66881-1.6871a1.52372,1.52372,0,0,0-1.05416-.25361,1.32779,1.32779,0,0,0-.23224,1.15291,21.79487,21.79487,0,0,0,1.625,1.96934,1.47561,1.47561,0,0,1,.427.88163A3.20374,3.20374,0,0,1,62.96345,72.27a6.69206,6.69206,0,0,1-2.38475-.732,2.21727,2.21727,0,0,1-.52051-1.25052c-0.13694-.486-0.067-1.08184-0.8969-1.07605-0.86.006-.5232,0.62183-0.4745,1.03647,0.23673,2.01759-.273,2.56494-2.4897,2.75418a7.63735,7.63735,0,0,1-3.303-.37155A2.50774,2.50774,0,0,1,51.22393,70.964c-0.18384-.50992-0.333-1.02759-0.50283-1.55777-0.438.01756-.817,0.0328-1.22442,0.04917-0.12194,1.01327.87153,2.13152-.13327,2.94288a0.76821,0.76821,0,0,1-.404-0.1449,2.04959,2.04959,0,0,1-.67845.72986c-4.1302.98316-4.97275,0.9655-8.44477-1.90208a4.26022,4.26022,0,0,1-1.2109-4.94353,2.46847,2.46847,0,0,0-.22524-1.16064,2.85587,2.85587,0,0,0-1.211.41112c-0.877,1.04184-1.31084,1.16726-2.73984.57382A11.21653,11.21653,0,0,1,29.055,61.09639c-0.81424-1.37082-.51718-2.09048.832-2.899a2.76178,2.76178,0,0,0,.56411-1.112,4.10608,4.10608,0,0,0-.98372-0.0885A4.3671,4.3671,0,0,1,26.1652,56.092a2.53572,2.53572,0,0,1-1.40277-2.32074c0.058-.78557.0255-1.5869,0.11892-2.3647a2.285,2.285,0,0,1,2.76674-1.805c0.78422,0.1482,1.11482-.18008,1.13333-0.77169C28.802,48.175,28.26855,48.12129,27.703,48.123c-2.648.00806-3.60916-1.97482-2.80407-4.01574,1.134-2.875,4.56948-5.90906,8.85306-4.11383a2.93031,2.93031,0,0,0,1.4504-.43322l-0.08-.4694c-0.43055-.11605-0.85811-0.25411-1.29225-0.34372a2.01173,2.01173,0,0,1-1.87685-1.72956,3.17886,3.17886,0,0,1,1.15911-3.31807,9.20221,9.20221,0,0,1,6.07039-2.19935,1.766,1.766,0,0,1,2.04191,1.91207,10.33843,10.33843,0,0,0,5.32589,9.03549,11.83,11.83,0,0,0,9.08778,1.5588,1.7627,1.7627,0,0,0,.5668-0.19829,18.67106,18.67106,0,0,0,5.98569-5.51441,16.85993,16.85993,0,0,0,1.12939-2.84863,5.72733,5.72733,0,0,1,3.422,2.94621c0.463,1.19189-.38746,2.05736-1.04063,2.91445a2.01247,2.01247,0,0,0-.38829.43581,11.68317,11.68317,0,0,0-.2764,1.20783,3.94072,3.94072,0,0,0,1.33238-.09726c0.95462-.45492,1.80154-0.98457,3.072-0.51724,2.11111,0.77651,2.04749,1.82045.94676,3.00865-0.47912.51716-1.227,0.8132-1.72052,1.32162a2.79067,2.79067,0,0,0-.35893,1.18568,2.98925,2.98925,0,0,0,1.03646.12834,6.089,6.089,0,0,1,3.4147.26247,2.91352,2.91352,0,0,1,1.73689,2.36849,2.239,2.239,0,0,1-2.61262,1.532c-0.46918-.07995-0.93884-0.16213-1.40917-0.22006-0.63432-.0782-1.28463.03579-1.17542,0.70541a1.93093,1.93093,0,0,0,1.15053.86721,10.34365,10.34365,0,0,0,2.50728.54772,2.38366,2.38366,0,0,1,2.17136,1.85374C75.93471,58.43493,74.48336,60.96356,71.249,60.54971Z"/><path d="M55.4349,23.03861c-0.08225.60762-.14249,1.31913-0.29442,2.00527a0.70246,0.70246,0,0,1-.5451.444c-0.63181.01169-1.97306-1.83059-1.70258-2.34086,0.23217-.438.58506-0.77121-0.074-1.282a1.671,1.671,0,0,1,.62718-1.11733,1.51874,1.51874,0,0,1,1.26577.42857A7.33124,7.33124,0,0,1,55.4349,23.03861Z"/><path d="M50.41456,23.197a8.12813,8.12813,0,0,1-.26828,1.74173c-0.31479.82392-.97628,0.83682-1.6459,0.11709a4.28475,4.28475,0,0,1-.50434-3.54352,0.9697,0.9697,0,0,1,1.66363.1559A10.45756,10.45756,0,0,1,50.41456,23.197Z"/></g></svg>