<svg xmlns="http://www.w3.org/2000/svg" xmlns:xlink="http://www.w3.org/1999/xlink" version="1.1" x="0px" y="0px" viewBox="0 0 100 125" enable-background="new 0 0 100 100" xml:space="preserve"><g><circle fill="#000000" cx="13.2" cy="39.8" r="1.8"/><path fill="#000000" d="M97.2,67.2c-0.7-2.2-2.2-4-3.7-5.8c-1.1-1.4-2.3-2.8-3-4.2c0.5-0.4,0.9-0.8,1.2-1.3c2.9-4.6-1.6-9.4-5-12.8   c-1.3-1.3-2.6-2.6-3.1-3.6c-6.1-11-17.7-17.9-30.3-17.9c-13.7,0-25.1,6.2-29.9,16.1c-0.7-0.6-1.4-1.3-2.1-2.1   c-3-3-6.9-4.1-10.8-3.1c-3.2,0.9-5.7,3.1-6.4,5.6c-0.8,3.1-0.5,5.7,1,7.5c2.3,3,6.7,3,8.6,3c0.3,0.1,0.8,0.4,1.5,0.9   c-4.2,2-15.8,8.6-12.3,18.2c1.2,3.3,2.9,5.2,5.1,5.8c0.5,0.1,0.9,0.2,1.4,0.2c3,0,5.9-2.4,8.6-4.8c0.9-0.8,1.7-1.5,2.5-2.1   c4.9-3.6,6.9-3.7,7.2-3.7c0.1,0,0.2,0.1,0.4,0.1c2.8,2.5,7,2.9,9.1,3c1.3,5.2,4.2,12.3,10.6,12.3c3.3,0,6.6-2.1,8.3-5.3   c1-1.9,1.3-4,0.8-5.9c1.9,0.1,4.4,0.2,7.3,0.2c4.6,0,9.8-0.2,13.9-1.1c1,2.5,2.2,5,3.2,6.5c1.4,1.9,5,3.1,8.3,3.1   c1.7,0,3.3-0.3,4.5-0.9C95.7,74.4,98.8,72.3,97.2,67.2z M18.3,63.6c-0.9,0.7-1.8,1.5-2.8,2.3c-2.2,1.9-4.9,4.2-6.4,3.8   c-0.8-0.2-1.6-1.4-2.4-3.3c-2.9-7.8,11.3-13.7,11.5-13.8c0.1,0,0.2-0.1,0.3-0.2c2.5,2.3,4.9,4.5,7.1,5.2c0,0.6,0.1,1.2,0.2,1.8   C24.2,59.9,21.7,61.1,18.3,63.6z M52.7,71.3c-1,1.8-3,3.1-4.8,3.1c-6.3,0-7.6-14-7.6-14.2c-0.1-1.1-1-1.9-2.1-1.8   c-1.1,0.1-1.9,1-1.8,2.1c0,0.1,0.1,0.7,0.2,1.5c-1.9-0.2-4.6-0.7-6-2.2c-0.5-0.5-0.8-1-0.9-1.7c0.6,0.1,1.1,0.1,1.7,0.1   c1.8,0,3.4-0.4,4.8-1.5c0.9-0.7,1-1.9,0.3-2.8c-0.7-0.9-1.9-1-2.8-0.3c-1.1,0.9-2.8,0.7-6.3,0.2l-0.3,0c-1.3-0.2-4.1-2.8-6-4.5   c-3.2-3-5.3-4.8-7.3-4.8c-1.2,0-4.4,0-5.5-1.5c-0.6-0.8-0.7-2.2-0.2-4.1c0.2-0.9,1.6-2.2,3.6-2.7c1.4-0.4,4.2-0.6,6.9,2.1   c1.5,1.5,3,2.9,4.3,4.1c0,0,0,0,0,0c3.3,2.9,5.9,4.7,8,5.5c2,0.8,4.1,2.1,6.5,3.7c2.9,1.9,6.3,4.1,10.4,5.7   c0.4,1.5,1.5,4.5,4.5,8.8C53.8,68.3,53.3,70.2,52.7,71.3z M55,63.2c-1.1-1.7-1.9-3.2-2.5-4.4c1.4,0.3,2.9,0.5,4.4,0.6l1.4,0.1   c5.1,0.3,10.9,0.7,16.2,0.7c0.4,0,0.8,0,1.2,0c0.2,0.5,0.5,1.4,0.9,2.4C69.5,63.9,58.3,63.4,55,63.2z M92.6,71.5   c-2.5,1.3-7.3,0-7.9-0.9c-1.5-2.1-3.5-7.4-4.6-10.6c2.8-0.2,5.1-0.6,7-1.1c0.9,1.9,2.2,3.5,3.5,5c1.3,1.5,2.5,3,2.9,4.4   C94.1,70.7,93.1,71.2,92.6,71.5z"/></g></svg>